<mxfile host="Electron" agent="Mozilla/5.0 (X11; Linux x86_64) AppleWebKit/537.36 (KHTML, like Gecko) draw.io/26.0.16 Chrome/132.0.6834.196 Electron/34.2.0 Safari/537.36" version="26.0.16" pages="5">
  <diagram id="XZmHtfnOly_GkdiunuoT" name="1_2000_ar_es_movies">
    <mxGraphModel dx="2532" dy="936" grid="1" gridSize="10" guides="1" tooltips="1" connect="1" arrows="1" fold="1" page="1" pageScale="1" pageWidth="1169" pageHeight="827" math="0" shadow="0">
      <root>
        <mxCell id="0" />
        <mxCell id="1" parent="0" />
        <mxCell id="K5pxXiIomKyi9jdbBw7r-1" value="AR Es 00&#39;s Movies Aggregator Worker" style="swimlane;whiteSpace=wrap;html=1;startSize=23;" parent="1" vertex="1">
          <mxGeometry x="-1160" y="10" width="270" height="430" as="geometry" />
        </mxCell>
        <mxCell id="K5pxXiIomKyi9jdbBw7r-2" value="Dequeue Ar Es&amp;nbsp;&lt;div&gt;00&#39;s movies&lt;/div&gt;" style="html=1;whiteSpace=wrap;" parent="K5pxXiIomKyi9jdbBw7r-1" vertex="1">
          <mxGeometry x="37" y="38" width="110" height="63" as="geometry" />
        </mxCell>
        <mxCell id="K5pxXiIomKyi9jdbBw7r-3" value="&lt;font style=&quot;font-size: 10px;&quot;&gt;More&lt;br&gt;&lt;/font&gt;&lt;div&gt;&lt;font style=&quot;font-size: 10px;&quot;&gt;movies&lt;/font&gt;&lt;/div&gt;" style="rhombus;whiteSpace=wrap;html=1;" parent="K5pxXiIomKyi9jdbBw7r-1" vertex="1">
          <mxGeometry x="44" y="152" width="90" height="89" as="geometry" />
        </mxCell>
        <mxCell id="K5pxXiIomKyi9jdbBw7r-4" value="" style="endArrow=classic;html=1;rounded=0;exitX=0.277;exitY=1.012;exitDx=0;exitDy=0;exitPerimeter=0;entryX=0.5;entryY=0;entryDx=0;entryDy=0;" parent="K5pxXiIomKyi9jdbBw7r-1" target="K5pxXiIomKyi9jdbBw7r-3" edge="1">
          <mxGeometry width="50" height="50" relative="1" as="geometry">
            <mxPoint x="88.47000000000003" y="101.75599999999997" as="sourcePoint" />
            <mxPoint x="110.32" y="120" as="targetPoint" />
          </mxGeometry>
        </mxCell>
        <mxCell id="K5pxXiIomKyi9jdbBw7r-5" value="" style="endArrow=classic;html=1;rounded=0;exitX=1;exitY=0.5;exitDx=0;exitDy=0;entryX=0;entryY=0.5;entryDx=0;entryDy=0;" parent="K5pxXiIomKyi9jdbBw7r-1" target="K5pxXiIomKyi9jdbBw7r-14" edge="1">
          <mxGeometry width="50" height="50" relative="1" as="geometry">
            <mxPoint x="134" y="196.5" as="sourcePoint" />
            <mxPoint x="184" y="197" as="targetPoint" />
          </mxGeometry>
        </mxCell>
        <mxCell id="K5pxXiIomKyi9jdbBw7r-6" value="Equeue to&lt;div&gt;Reports Queue&lt;/div&gt;" style="html=1;whiteSpace=wrap;" parent="K5pxXiIomKyi9jdbBw7r-1" vertex="1">
          <mxGeometry x="39" y="297" width="110" height="50" as="geometry" />
        </mxCell>
        <mxCell id="K5pxXiIomKyi9jdbBw7r-7" value="" style="ellipse;html=1;shape=endState;fillColor=#000000;strokeColor=#ff0000;" parent="K5pxXiIomKyi9jdbBw7r-1" vertex="1">
          <mxGeometry x="78" y="387" width="30" height="30" as="geometry" />
        </mxCell>
        <mxCell id="K5pxXiIomKyi9jdbBw7r-8" value="" style="endArrow=classic;html=1;rounded=0;exitX=0.5;exitY=1;exitDx=0;exitDy=0;entryX=0.5;entryY=0;entryDx=0;entryDy=0;" parent="K5pxXiIomKyi9jdbBw7r-1" source="K5pxXiIomKyi9jdbBw7r-6" edge="1">
          <mxGeometry width="50" height="50" relative="1" as="geometry">
            <mxPoint x="84" y="237" as="sourcePoint" />
            <mxPoint x="94" y="387" as="targetPoint" />
          </mxGeometry>
        </mxCell>
        <mxCell id="K5pxXiIomKyi9jdbBw7r-9" value="Yes" style="text;strokeColor=none;fillColor=none;align=left;verticalAlign=middle;spacingLeft=4;spacingRight=4;overflow=hidden;points=[[0,0.5],[1,0.5]];portConstraint=eastwest;rotatable=0;whiteSpace=wrap;html=1;" parent="K5pxXiIomKyi9jdbBw7r-1" vertex="1">
          <mxGeometry x="129" y="178" width="34" height="17" as="geometry" />
        </mxCell>
        <mxCell id="K5pxXiIomKyi9jdbBw7r-10" value="No" style="text;strokeColor=none;fillColor=none;align=left;verticalAlign=middle;spacingLeft=4;spacingRight=4;overflow=hidden;points=[[0,0.5],[1,0.5]];portConstraint=eastwest;rotatable=0;whiteSpace=wrap;html=1;" parent="K5pxXiIomKyi9jdbBw7r-1" vertex="1">
          <mxGeometry x="89" y="241" width="34" height="17" as="geometry" />
        </mxCell>
        <mxCell id="K5pxXiIomKyi9jdbBw7r-14" value="Add&lt;div&gt;to&lt;/div&gt;&lt;div&gt;report&lt;/div&gt;" style="html=1;whiteSpace=wrap;" parent="K5pxXiIomKyi9jdbBw7r-1" vertex="1">
          <mxGeometry x="169" y="167" width="61" height="60" as="geometry" />
        </mxCell>
        <mxCell id="K5pxXiIomKyi9jdbBw7r-18" value="" style="endArrow=classic;html=1;rounded=0;exitX=0.5;exitY=0;exitDx=0;exitDy=0;entryX=1.008;entryY=0.515;entryDx=0;entryDy=0;entryPerimeter=0;" parent="K5pxXiIomKyi9jdbBw7r-1" source="K5pxXiIomKyi9jdbBw7r-14" target="K5pxXiIomKyi9jdbBw7r-2" edge="1">
          <mxGeometry width="50" height="50" relative="1" as="geometry">
            <mxPoint x="280" y="147.5" as="sourcePoint" />
            <mxPoint x="140" y="70" as="targetPoint" />
            <Array as="points">
              <mxPoint x="200" y="70" />
            </Array>
          </mxGeometry>
        </mxCell>
        <mxCell id="K5pxXiIomKyi9jdbBw7r-20" value="" style="endArrow=classic;html=1;rounded=0;exitX=0.5;exitY=1;exitDx=0;exitDy=0;entryX=0.458;entryY=-0.034;entryDx=0;entryDy=0;entryPerimeter=0;" parent="K5pxXiIomKyi9jdbBw7r-1" source="K5pxXiIomKyi9jdbBw7r-3" target="K5pxXiIomKyi9jdbBw7r-6" edge="1">
          <mxGeometry width="50" height="50" relative="1" as="geometry">
            <mxPoint x="101" y="200" as="sourcePoint" />
            <mxPoint x="151" y="150" as="targetPoint" />
          </mxGeometry>
        </mxCell>
      </root>
    </mxGraphModel>
  </diagram>
  <diagram id="b0cMLH2VqSS6jJix6k2E" name="2_Top_Investor_Ratings">
    <mxGraphModel dx="2291" dy="771" grid="1" gridSize="10" guides="1" tooltips="1" connect="1" arrows="1" fold="1" page="1" pageScale="1" pageWidth="1169" pageHeight="827" math="0" shadow="0">
      <root>
        <mxCell id="0" />
        <mxCell id="1" parent="0" />
        <mxCell id="tvFVLlO2ujILWMQMHN4k-1" value="Top 5 Investors Filter Worker" style="swimlane;whiteSpace=wrap;html=1;" parent="1" vertex="1">
          <mxGeometry x="-1160" y="10" width="330" height="470" as="geometry" />
        </mxCell>
        <mxCell id="tvFVLlO2ujILWMQMHN4k-2" value="" style="ellipse;html=1;shape=startState;fillColor=#000000;strokeColor=#ff0000;" parent="tvFVLlO2ujILWMQMHN4k-1" vertex="1">
          <mxGeometry x="54" y="30" width="30" height="30" as="geometry" />
        </mxCell>
        <mxCell id="tvFVLlO2ujILWMQMHN4k-4" value="" style="endArrow=classic;html=1;rounded=0;exitX=0.48;exitY=0.843;exitDx=0;exitDy=0;exitPerimeter=0;entryX=0.485;entryY=0.009;entryDx=0;entryDy=0;entryPerimeter=0;" parent="tvFVLlO2ujILWMQMHN4k-1" target="tvFVLlO2ujILWMQMHN4k-5" edge="1">
          <mxGeometry width="50" height="50" relative="1" as="geometry">
            <mxPoint x="67.39999999999986" y="55.289999999999964" as="sourcePoint" />
            <mxPoint x="65" y="74" as="targetPoint" />
          </mxGeometry>
        </mxCell>
        <mxCell id="tvFVLlO2ujILWMQMHN4k-5" value="Dequeue Single&lt;div&gt;Origin movie&lt;/div&gt;" style="html=1;whiteSpace=wrap;" parent="tvFVLlO2ujILWMQMHN4k-1" vertex="1">
          <mxGeometry x="14" y="75" width="110" height="50" as="geometry" />
        </mxCell>
        <mxCell id="tvFVLlO2ujILWMQMHN4k-10" value="More&lt;div&gt;movies?&lt;/div&gt;" style="rhombus;whiteSpace=wrap;html=1;" parent="tvFVLlO2ujILWMQMHN4k-1" vertex="1">
          <mxGeometry x="25" y="152" width="80" height="80" as="geometry" />
        </mxCell>
        <mxCell id="tvFVLlO2ujILWMQMHN4k-11" value="" style="endArrow=classic;html=1;rounded=0;exitX=0.461;exitY=1.007;exitDx=0;exitDy=0;exitPerimeter=0;entryX=0.5;entryY=-0.012;entryDx=0;entryDy=0;entryPerimeter=0;" parent="tvFVLlO2ujILWMQMHN4k-1" source="tvFVLlO2ujILWMQMHN4k-5" target="tvFVLlO2ujILWMQMHN4k-10" edge="1">
          <mxGeometry width="50" height="50" relative="1" as="geometry">
            <mxPoint x="82" y="221" as="sourcePoint" />
            <mxPoint x="65" y="156.3" as="targetPoint" />
          </mxGeometry>
        </mxCell>
        <mxCell id="tvFVLlO2ujILWMQMHN4k-17" value="Equeue&amp;nbsp;&lt;div&gt;top investor&lt;/div&gt;&lt;div&gt;countries&lt;/div&gt;" style="html=1;whiteSpace=wrap;" parent="tvFVLlO2ujILWMQMHN4k-1" vertex="1">
          <mxGeometry x="11" y="347" width="110" height="65" as="geometry" />
        </mxCell>
        <mxCell id="tvFVLlO2ujILWMQMHN4k-18" value="" style="endArrow=classic;html=1;rounded=0;exitX=0.494;exitY=1.03;exitDx=0;exitDy=0;exitPerimeter=0;entryX=0.489;entryY=-0.03;entryDx=0;entryDy=0;entryPerimeter=0;" parent="tvFVLlO2ujILWMQMHN4k-1" source="tvFVLlO2ujILWMQMHN4k-10" target="tvFVLlO2ujILWMQMHN4k-17" edge="1">
          <mxGeometry width="50" height="50" relative="1" as="geometry">
            <mxPoint x="197" y="301" as="sourcePoint" />
            <mxPoint x="247" y="251" as="targetPoint" />
          </mxGeometry>
        </mxCell>
        <mxCell id="tvFVLlO2ujILWMQMHN4k-30" value="Yes" style="text;strokeColor=none;fillColor=none;align=left;verticalAlign=middle;spacingLeft=4;spacingRight=4;overflow=hidden;points=[[0,0.5],[1,0.5]];portConstraint=eastwest;rotatable=0;whiteSpace=wrap;html=1;" parent="tvFVLlO2ujILWMQMHN4k-1" vertex="1">
          <mxGeometry x="101" y="170" width="34" height="17" as="geometry" />
        </mxCell>
        <mxCell id="tvFVLlO2ujILWMQMHN4k-33" value="No" style="text;strokeColor=none;fillColor=none;align=left;verticalAlign=middle;spacingLeft=4;spacingRight=4;overflow=hidden;points=[[0,0.5],[1,0.5]];portConstraint=eastwest;rotatable=0;whiteSpace=wrap;html=1;" parent="tvFVLlO2ujILWMQMHN4k-1" vertex="1">
          <mxGeometry x="67" y="244" width="34" height="17" as="geometry" />
        </mxCell>
        <mxCell id="tvFVLlO2ujILWMQMHN4k-51" value="Does it&amp;nbsp;&lt;div&gt;make into&amp;nbsp;&lt;div&gt;the top 5&lt;/div&gt;&lt;/div&gt;" style="rhombus;whiteSpace=wrap;html=1;" parent="tvFVLlO2ujILWMQMHN4k-1" vertex="1">
          <mxGeometry x="125" y="148" width="90" height="88" as="geometry" />
        </mxCell>
        <mxCell id="tvFVLlO2ujILWMQMHN4k-52" value="" style="endArrow=classic;html=1;rounded=0;exitX=1;exitY=0.5;exitDx=0;exitDy=0;entryX=0;entryY=0.5;entryDx=0;entryDy=0;" parent="tvFVLlO2ujILWMQMHN4k-1" source="tvFVLlO2ujILWMQMHN4k-10" target="tvFVLlO2ujILWMQMHN4k-51" edge="1">
          <mxGeometry width="50" height="50" relative="1" as="geometry">
            <mxPoint x="235" y="230" as="sourcePoint" />
            <mxPoint x="285" y="180" as="targetPoint" />
          </mxGeometry>
        </mxCell>
        <mxCell id="tvFVLlO2ujILWMQMHN4k-53" value="Discard" style="html=1;whiteSpace=wrap;" parent="tvFVLlO2ujILWMQMHN4k-1" vertex="1">
          <mxGeometry x="139.5" y="260" width="61" height="40" as="geometry" />
        </mxCell>
        <mxCell id="tvFVLlO2ujILWMQMHN4k-54" value="" style="endArrow=classic;html=1;rounded=0;exitX=0.5;exitY=1;exitDx=0;exitDy=0;entryX=0.5;entryY=0;entryDx=0;entryDy=0;" parent="tvFVLlO2ujILWMQMHN4k-1" source="tvFVLlO2ujILWMQMHN4k-51" target="tvFVLlO2ujILWMQMHN4k-53" edge="1">
          <mxGeometry width="50" height="50" relative="1" as="geometry">
            <mxPoint x="235" y="320" as="sourcePoint" />
            <mxPoint x="285" y="270" as="targetPoint" />
          </mxGeometry>
        </mxCell>
        <mxCell id="tvFVLlO2ujILWMQMHN4k-55" value="Add to&amp;nbsp;&lt;div&gt;top 5&lt;/div&gt;" style="html=1;whiteSpace=wrap;" parent="tvFVLlO2ujILWMQMHN4k-1" vertex="1">
          <mxGeometry x="234" y="172" width="61" height="40" as="geometry" />
        </mxCell>
        <mxCell id="tvFVLlO2ujILWMQMHN4k-56" value="" style="endArrow=classic;html=1;rounded=0;exitX=1;exitY=0.5;exitDx=0;exitDy=0;entryX=0;entryY=0.5;entryDx=0;entryDy=0;" parent="tvFVLlO2ujILWMQMHN4k-1" source="tvFVLlO2ujILWMQMHN4k-51" target="tvFVLlO2ujILWMQMHN4k-55" edge="1">
          <mxGeometry width="50" height="50" relative="1" as="geometry">
            <mxPoint x="235" y="320" as="sourcePoint" />
            <mxPoint x="285" y="270" as="targetPoint" />
          </mxGeometry>
        </mxCell>
        <mxCell id="tvFVLlO2ujILWMQMHN4k-57" value="" style="endArrow=classic;html=1;rounded=0;exitX=0.5;exitY=0;exitDx=0;exitDy=0;entryX=1;entryY=0.5;entryDx=0;entryDy=0;" parent="tvFVLlO2ujILWMQMHN4k-1" source="tvFVLlO2ujILWMQMHN4k-55" target="tvFVLlO2ujILWMQMHN4k-5" edge="1">
          <mxGeometry width="50" height="50" relative="1" as="geometry">
            <mxPoint x="235" y="320" as="sourcePoint" />
            <mxPoint x="285" y="270" as="targetPoint" />
            <Array as="points">
              <mxPoint x="265" y="100" />
            </Array>
          </mxGeometry>
        </mxCell>
        <mxCell id="tvFVLlO2ujILWMQMHN4k-59" value="Yes" style="text;strokeColor=none;fillColor=none;align=left;verticalAlign=middle;spacingLeft=4;spacingRight=4;overflow=hidden;points=[[0,0.5],[1,0.5]];portConstraint=eastwest;rotatable=0;whiteSpace=wrap;html=1;" parent="tvFVLlO2ujILWMQMHN4k-1" vertex="1">
          <mxGeometry x="200.5" y="170" width="34" height="17" as="geometry" />
        </mxCell>
        <mxCell id="tvFVLlO2ujILWMQMHN4k-60" value="No" style="text;strokeColor=none;fillColor=none;align=left;verticalAlign=middle;spacingLeft=4;spacingRight=4;overflow=hidden;points=[[0,0.5],[1,0.5]];portConstraint=eastwest;rotatable=0;whiteSpace=wrap;html=1;" parent="tvFVLlO2ujILWMQMHN4k-1" vertex="1">
          <mxGeometry x="171" y="236" width="34" height="17" as="geometry" />
        </mxCell>
        <mxCell id="lhDSoJGuO1T8XPw5QwNG-1" value="Equeue fineshed&lt;br&gt;&lt;div&gt;signal&lt;/div&gt;" style="html=1;whiteSpace=wrap;" parent="tvFVLlO2ujILWMQMHN4k-1" vertex="1">
          <mxGeometry x="162.5" y="354" width="110" height="50" as="geometry" />
        </mxCell>
        <mxCell id="lhDSoJGuO1T8XPw5QwNG-2" value="" style="endArrow=classic;html=1;rounded=0;exitX=1;exitY=0.5;exitDx=0;exitDy=0;entryX=0;entryY=0.5;entryDx=0;entryDy=0;" parent="tvFVLlO2ujILWMQMHN4k-1" source="tvFVLlO2ujILWMQMHN4k-17" target="lhDSoJGuO1T8XPw5QwNG-1" edge="1">
          <mxGeometry width="50" height="50" relative="1" as="geometry">
            <mxPoint x="220" y="320" as="sourcePoint" />
            <mxPoint x="270" y="270" as="targetPoint" />
          </mxGeometry>
        </mxCell>
        <mxCell id="tvFVLlO2ujILWMQMHN4k-34" value="Top 5 Aggregator Worker" style="swimlane;whiteSpace=wrap;html=1;startSize=23;" parent="1" vertex="1">
          <mxGeometry x="-830" y="10" width="330" height="470" as="geometry" />
        </mxCell>
        <mxCell id="tvFVLlO2ujILWMQMHN4k-35" value="Dequeue top investor&lt;div&gt;countries&lt;/div&gt;" style="html=1;whiteSpace=wrap;" parent="tvFVLlO2ujILWMQMHN4k-34" vertex="1">
          <mxGeometry x="37" y="38" width="110" height="63" as="geometry" />
        </mxCell>
        <mxCell id="tvFVLlO2ujILWMQMHN4k-36" value="&lt;font style=&quot;font-size: 10px;&quot;&gt;More investor&lt;/font&gt;&lt;div&gt;&lt;font style=&quot;font-size: 10px;&quot;&gt;countries&lt;/font&gt;&lt;/div&gt;" style="rhombus;whiteSpace=wrap;html=1;" parent="tvFVLlO2ujILWMQMHN4k-34" vertex="1">
          <mxGeometry x="23" y="123" width="90" height="89" as="geometry" />
        </mxCell>
        <mxCell id="tvFVLlO2ujILWMQMHN4k-37" value="" style="endArrow=classic;html=1;rounded=0;exitX=0.277;exitY=1.012;exitDx=0;exitDy=0;exitPerimeter=0;entryX=0.5;entryY=0;entryDx=0;entryDy=0;" parent="tvFVLlO2ujILWMQMHN4k-34" source="tvFVLlO2ujILWMQMHN4k-35" target="tvFVLlO2ujILWMQMHN4k-36" edge="1">
          <mxGeometry width="50" height="50" relative="1" as="geometry">
            <mxPoint x="88.69000000000011" y="101" as="sourcePoint" />
            <mxPoint x="89.32" y="120" as="targetPoint" />
          </mxGeometry>
        </mxCell>
        <mxCell id="tvFVLlO2ujILWMQMHN4k-40" value="" style="endArrow=classic;html=1;rounded=0;exitX=1;exitY=0.5;exitDx=0;exitDy=0;entryX=0;entryY=0.5;entryDx=0;entryDy=0;" parent="tvFVLlO2ujILWMQMHN4k-34" source="tvFVLlO2ujILWMQMHN4k-36" target="tvFVLlO2ujILWMQMHN4k-61" edge="1">
          <mxGeometry width="50" height="50" relative="1" as="geometry">
            <mxPoint x="-122" y="279" as="sourcePoint" />
            <mxPoint x="144" y="167" as="targetPoint" />
          </mxGeometry>
        </mxCell>
        <mxCell id="tvFVLlO2ujILWMQMHN4k-41" value="Equeue to&lt;div&gt;Reports Queue&lt;/div&gt;" style="html=1;whiteSpace=wrap;" parent="tvFVLlO2ujILWMQMHN4k-34" vertex="1">
          <mxGeometry x="18" y="297" width="110" height="50" as="geometry" />
        </mxCell>
        <mxCell id="tvFVLlO2ujILWMQMHN4k-43" value="" style="ellipse;html=1;shape=endState;fillColor=#000000;strokeColor=#ff0000;" parent="tvFVLlO2ujILWMQMHN4k-34" vertex="1">
          <mxGeometry x="58" y="387" width="30" height="30" as="geometry" />
        </mxCell>
        <mxCell id="tvFVLlO2ujILWMQMHN4k-44" value="" style="endArrow=classic;html=1;rounded=0;exitX=0.5;exitY=1;exitDx=0;exitDy=0;entryX=0.5;entryY=0;entryDx=0;entryDy=0;" parent="tvFVLlO2ujILWMQMHN4k-34" source="tvFVLlO2ujILWMQMHN4k-41" target="tvFVLlO2ujILWMQMHN4k-43" edge="1">
          <mxGeometry width="50" height="50" relative="1" as="geometry">
            <mxPoint x="63" y="237" as="sourcePoint" />
            <mxPoint x="113" y="187" as="targetPoint" />
          </mxGeometry>
        </mxCell>
        <mxCell id="tvFVLlO2ujILWMQMHN4k-45" value="Yes" style="text;strokeColor=none;fillColor=none;align=left;verticalAlign=middle;spacingLeft=4;spacingRight=4;overflow=hidden;points=[[0,0.5],[1,0.5]];portConstraint=eastwest;rotatable=0;whiteSpace=wrap;html=1;" parent="tvFVLlO2ujILWMQMHN4k-34" vertex="1">
          <mxGeometry x="108" y="149" width="34" height="17" as="geometry" />
        </mxCell>
        <mxCell id="tvFVLlO2ujILWMQMHN4k-47" value="No" style="text;strokeColor=none;fillColor=none;align=left;verticalAlign=middle;spacingLeft=4;spacingRight=4;overflow=hidden;points=[[0,0.5],[1,0.5]];portConstraint=eastwest;rotatable=0;whiteSpace=wrap;html=1;" parent="tvFVLlO2ujILWMQMHN4k-34" vertex="1">
          <mxGeometry x="68" y="212" width="34" height="17" as="geometry" />
        </mxCell>
        <mxCell id="tvFVLlO2ujILWMQMHN4k-61" value="Does it&amp;nbsp;&lt;div&gt;make into&amp;nbsp;&lt;div&gt;the top 5&lt;/div&gt;&lt;/div&gt;" style="rhombus;whiteSpace=wrap;html=1;" parent="tvFVLlO2ujILWMQMHN4k-34" vertex="1">
          <mxGeometry x="140" y="123" width="90" height="88" as="geometry" />
        </mxCell>
        <mxCell id="tvFVLlO2ujILWMQMHN4k-62" value="Discard" style="html=1;whiteSpace=wrap;" parent="tvFVLlO2ujILWMQMHN4k-34" vertex="1">
          <mxGeometry x="154.5" y="235" width="61" height="40" as="geometry" />
        </mxCell>
        <mxCell id="tvFVLlO2ujILWMQMHN4k-63" value="" style="endArrow=classic;html=1;rounded=0;exitX=0.5;exitY=1;exitDx=0;exitDy=0;entryX=0.5;entryY=0;entryDx=0;entryDy=0;" parent="tvFVLlO2ujILWMQMHN4k-34" source="tvFVLlO2ujILWMQMHN4k-61" target="tvFVLlO2ujILWMQMHN4k-62" edge="1">
          <mxGeometry width="50" height="50" relative="1" as="geometry">
            <mxPoint x="250" y="295" as="sourcePoint" />
            <mxPoint x="300" y="245" as="targetPoint" />
          </mxGeometry>
        </mxCell>
        <mxCell id="tvFVLlO2ujILWMQMHN4k-64" value="Add to&amp;nbsp;&lt;div&gt;top 5&lt;/div&gt;" style="html=1;whiteSpace=wrap;" parent="tvFVLlO2ujILWMQMHN4k-34" vertex="1">
          <mxGeometry x="249" y="147" width="61" height="40" as="geometry" />
        </mxCell>
        <mxCell id="tvFVLlO2ujILWMQMHN4k-65" value="" style="endArrow=classic;html=1;rounded=0;exitX=1;exitY=0.5;exitDx=0;exitDy=0;entryX=0;entryY=0.5;entryDx=0;entryDy=0;" parent="tvFVLlO2ujILWMQMHN4k-34" source="tvFVLlO2ujILWMQMHN4k-61" target="tvFVLlO2ujILWMQMHN4k-64" edge="1">
          <mxGeometry width="50" height="50" relative="1" as="geometry">
            <mxPoint x="250" y="295" as="sourcePoint" />
            <mxPoint x="300" y="245" as="targetPoint" />
          </mxGeometry>
        </mxCell>
        <mxCell id="tvFVLlO2ujILWMQMHN4k-66" value="Yes" style="text;strokeColor=none;fillColor=none;align=left;verticalAlign=middle;spacingLeft=4;spacingRight=4;overflow=hidden;points=[[0,0.5],[1,0.5]];portConstraint=eastwest;rotatable=0;whiteSpace=wrap;html=1;" parent="tvFVLlO2ujILWMQMHN4k-34" vertex="1">
          <mxGeometry x="215.5" y="145" width="34" height="17" as="geometry" />
        </mxCell>
        <mxCell id="tvFVLlO2ujILWMQMHN4k-67" value="No" style="text;strokeColor=none;fillColor=none;align=left;verticalAlign=middle;spacingLeft=4;spacingRight=4;overflow=hidden;points=[[0,0.5],[1,0.5]];portConstraint=eastwest;rotatable=0;whiteSpace=wrap;html=1;" parent="tvFVLlO2ujILWMQMHN4k-34" vertex="1">
          <mxGeometry x="186" y="211" width="34" height="17" as="geometry" />
        </mxCell>
        <mxCell id="tvFVLlO2ujILWMQMHN4k-68" value="" style="endArrow=classic;html=1;rounded=0;exitX=0.5;exitY=0;exitDx=0;exitDy=0;entryX=1.008;entryY=0.515;entryDx=0;entryDy=0;entryPerimeter=0;" parent="tvFVLlO2ujILWMQMHN4k-34" target="tvFVLlO2ujILWMQMHN4k-35" edge="1">
          <mxGeometry width="50" height="50" relative="1" as="geometry">
            <mxPoint x="280" y="147.5" as="sourcePoint" />
            <mxPoint x="140" y="70" as="targetPoint" />
            <Array as="points">
              <mxPoint x="280" y="70" />
            </Array>
          </mxGeometry>
        </mxCell>
        <mxCell id="tvFVLlO2ujILWMQMHN4k-69" value="" style="endArrow=none;html=1;rounded=0;startFill=0;exitX=1.005;exitY=0.647;exitDx=0;exitDy=0;exitPerimeter=0;" parent="tvFVLlO2ujILWMQMHN4k-34" source="tvFVLlO2ujILWMQMHN4k-62" edge="1">
          <mxGeometry width="50" height="50" relative="1" as="geometry">
            <mxPoint x="220" y="257" as="sourcePoint" />
            <mxPoint x="280" y="70" as="targetPoint" />
            <Array as="points">
              <mxPoint x="320" y="260" />
              <mxPoint x="320" y="70" />
            </Array>
          </mxGeometry>
        </mxCell>
        <mxCell id="tvFVLlO2ujILWMQMHN4k-70" value="" style="endArrow=classic;html=1;rounded=0;exitX=0.5;exitY=1;exitDx=0;exitDy=0;entryX=0.458;entryY=-0.034;entryDx=0;entryDy=0;entryPerimeter=0;" parent="tvFVLlO2ujILWMQMHN4k-34" source="tvFVLlO2ujILWMQMHN4k-36" target="tvFVLlO2ujILWMQMHN4k-41" edge="1">
          <mxGeometry width="50" height="50" relative="1" as="geometry">
            <mxPoint x="80" y="200" as="sourcePoint" />
            <mxPoint x="130" y="150" as="targetPoint" />
          </mxGeometry>
        </mxCell>
        <mxCell id="tvFVLlO2ujILWMQMHN4k-48" value="" style="endArrow=classic;html=1;rounded=0;exitX=1.003;exitY=0.617;exitDx=0;exitDy=0;entryX=0;entryY=0.5;entryDx=0;entryDy=0;dashed=1;exitPerimeter=0;" parent="1" source="lhDSoJGuO1T8XPw5QwNG-1" target="tvFVLlO2ujILWMQMHN4k-35" edge="1">
          <mxGeometry width="50" height="50" relative="1" as="geometry">
            <mxPoint x="-1019" y="545" as="sourcePoint" />
            <mxPoint x="-670" y="500" as="targetPoint" />
            <Array as="points">
              <mxPoint x="-820" y="395" />
              <mxPoint x="-820" y="80" />
            </Array>
          </mxGeometry>
        </mxCell>
        <mxCell id="tvFVLlO2ujILWMQMHN4k-58" value="" style="endArrow=none;html=1;rounded=0;exitX=1;exitY=0.5;exitDx=0;exitDy=0;startFill=0;" parent="1" source="tvFVLlO2ujILWMQMHN4k-53" edge="1">
          <mxGeometry width="50" height="50" relative="1" as="geometry">
            <mxPoint x="-935" y="220" as="sourcePoint" />
            <mxPoint x="-895" y="110" as="targetPoint" />
            <Array as="points">
              <mxPoint x="-845" y="290" />
              <mxPoint x="-845" y="110" />
            </Array>
          </mxGeometry>
        </mxCell>
      </root>
    </mxGraphModel>
  </diagram>
  <diagram id="Y-M8EGGlBib9hBAzG8T0" name="3_Bottom_y_Top_Ratings">
    <mxGraphModel dx="2190" dy="936" grid="1" gridSize="10" guides="1" tooltips="1" connect="1" arrows="1" fold="1" page="1" pageScale="1" pageWidth="827" pageHeight="1169" math="0" shadow="0">
      <root>
        <mxCell id="0" />
        <mxCell id="1" parent="0" />
        <mxCell id="im_YJyTrQw4Tyn21Mxfv-1" value="Group By Movie ID Worker" style="swimlane;whiteSpace=wrap;html=1;" parent="1" vertex="1">
          <mxGeometry x="-820" y="10" width="410" height="590" as="geometry" />
        </mxCell>
        <mxCell id="im_YJyTrQw4Tyn21Mxfv-2" value="" style="ellipse;html=1;shape=startState;fillColor=#000000;strokeColor=#ff0000;" parent="im_YJyTrQw4Tyn21Mxfv-1" vertex="1">
          <mxGeometry x="180" y="33" width="30" height="30" as="geometry" />
        </mxCell>
        <mxCell id="im_YJyTrQw4Tyn21Mxfv-3" value="" style="line;strokeWidth=1;fillColor=none;align=left;verticalAlign=middle;spacingTop=-1;spacingLeft=3;spacingRight=3;rotatable=0;labelPosition=right;points=[];portConstraint=eastwest;strokeColor=inherit;" parent="im_YJyTrQw4Tyn21Mxfv-1" vertex="1">
          <mxGeometry x="145" y="75" width="100" height="8" as="geometry" />
        </mxCell>
        <mxCell id="im_YJyTrQw4Tyn21Mxfv-4" value="" style="endArrow=classic;html=1;rounded=0;exitX=0.487;exitY=0.94;exitDx=0;exitDy=0;exitPerimeter=0;entryX=0.5;entryY=0.125;entryDx=0;entryDy=0;entryPerimeter=0;" parent="im_YJyTrQw4Tyn21Mxfv-1" source="im_YJyTrQw4Tyn21Mxfv-2" target="im_YJyTrQw4Tyn21Mxfv-3" edge="1">
          <mxGeometry width="50" height="50" relative="1" as="geometry">
            <mxPoint x="225" y="180" as="sourcePoint" />
            <mxPoint x="275" y="130" as="targetPoint" />
          </mxGeometry>
        </mxCell>
        <mxCell id="im_YJyTrQw4Tyn21Mxfv-5" value="Dequeue Ratings" style="html=1;whiteSpace=wrap;" parent="im_YJyTrQw4Tyn21Mxfv-1" vertex="1">
          <mxGeometry x="72" y="101" width="110" height="50" as="geometry" />
        </mxCell>
        <mxCell id="im_YJyTrQw4Tyn21Mxfv-6" value="Dequeue Arg&amp;gt;=2000&lt;br&gt;&lt;span style=&quot;background-color: transparent; color: light-dark(rgb(0, 0, 0), rgb(255, 255, 255));&quot;&gt;movies&amp;nbsp;&lt;/span&gt;" style="html=1;whiteSpace=wrap;" parent="im_YJyTrQw4Tyn21Mxfv-1" vertex="1">
          <mxGeometry x="210" y="101" width="110" height="50" as="geometry" />
        </mxCell>
        <mxCell id="im_YJyTrQw4Tyn21Mxfv-7" value="" style="endArrow=classic;html=1;rounded=0;exitX=0.094;exitY=0.5;exitDx=0;exitDy=0;exitPerimeter=0;entryX=0.75;entryY=0;entryDx=0;entryDy=0;" parent="im_YJyTrQw4Tyn21Mxfv-1" source="im_YJyTrQw4Tyn21Mxfv-3" target="im_YJyTrQw4Tyn21Mxfv-5" edge="1">
          <mxGeometry width="50" height="50" relative="1" as="geometry">
            <mxPoint x="325" y="150" as="sourcePoint" />
            <mxPoint x="375" y="100" as="targetPoint" />
          </mxGeometry>
        </mxCell>
        <mxCell id="im_YJyTrQw4Tyn21Mxfv-8" value="" style="endArrow=classic;html=1;rounded=0;entryX=0.25;entryY=0;entryDx=0;entryDy=0;exitX=0.927;exitY=0.519;exitDx=0;exitDy=0;exitPerimeter=0;" parent="im_YJyTrQw4Tyn21Mxfv-1" target="im_YJyTrQw4Tyn21Mxfv-6" edge="1">
          <mxGeometry width="50" height="50" relative="1" as="geometry">
            <mxPoint x="236.70000000000005" y="79.15200000000004" as="sourcePoint" />
            <mxPoint x="243" y="100" as="targetPoint" />
          </mxGeometry>
        </mxCell>
        <mxCell id="im_YJyTrQw4Tyn21Mxfv-9" value="&lt;div&gt;&lt;span style=&quot;background-color: transparent; color: light-dark(rgb(0, 0, 0), rgb(255, 255, 255));&quot;&gt;More&amp;nbsp;&lt;/span&gt;&lt;/div&gt;&lt;div&gt;&lt;span style=&quot;background-color: transparent; color: light-dark(rgb(0, 0, 0), rgb(255, 255, 255));&quot;&gt;movies?&lt;/span&gt;&lt;/div&gt;" style="rhombus;whiteSpace=wrap;html=1;" parent="im_YJyTrQw4Tyn21Mxfv-1" vertex="1">
          <mxGeometry x="201" y="171" width="80" height="80" as="geometry" />
        </mxCell>
        <mxCell id="im_YJyTrQw4Tyn21Mxfv-10" value="More&lt;div&gt;ratings?&lt;/div&gt;" style="rhombus;whiteSpace=wrap;html=1;" parent="im_YJyTrQw4Tyn21Mxfv-1" vertex="1">
          <mxGeometry x="83" y="171" width="80" height="80" as="geometry" />
        </mxCell>
        <mxCell id="im_YJyTrQw4Tyn21Mxfv-11" value="" style="endArrow=classic;html=1;rounded=0;exitX=0.461;exitY=1.007;exitDx=0;exitDy=0;exitPerimeter=0;entryX=0.5;entryY=-0.012;entryDx=0;entryDy=0;entryPerimeter=0;" parent="im_YJyTrQw4Tyn21Mxfv-1" source="im_YJyTrQw4Tyn21Mxfv-5" target="im_YJyTrQw4Tyn21Mxfv-10" edge="1">
          <mxGeometry width="50" height="50" relative="1" as="geometry">
            <mxPoint x="140" y="240" as="sourcePoint" />
            <mxPoint x="123" y="175.3" as="targetPoint" />
          </mxGeometry>
        </mxCell>
        <mxCell id="im_YJyTrQw4Tyn21Mxfv-12" value="" style="endArrow=classic;html=1;rounded=0;exitX=0.277;exitY=1.012;exitDx=0;exitDy=0;exitPerimeter=0;entryX=0.5;entryY=0;entryDx=0;entryDy=0;" parent="im_YJyTrQw4Tyn21Mxfv-1" source="im_YJyTrQw4Tyn21Mxfv-6" target="im_YJyTrQw4Tyn21Mxfv-9" edge="1">
          <mxGeometry width="50" height="50" relative="1" as="geometry">
            <mxPoint x="261.6900000000001" y="152" as="sourcePoint" />
            <mxPoint x="262.32" y="171" as="targetPoint" />
          </mxGeometry>
        </mxCell>
        <mxCell id="im_YJyTrQw4Tyn21Mxfv-13" value="&lt;div&gt;Recalculate&amp;nbsp;&lt;/div&gt;&lt;div&gt;&lt;span style=&quot;background-color: transparent; color: light-dark(rgb(0, 0, 0), rgb(255, 255, 255));&quot;&gt;rating&lt;/span&gt;&lt;/div&gt;&lt;div&gt;average&lt;span style=&quot;background-color: transparent; color: light-dark(rgb(0, 0, 0), rgb(255, 255, 255));&quot;&gt;&lt;/span&gt;&lt;/div&gt;&lt;div&gt;movie&lt;/div&gt;&lt;div&gt;and save&lt;/div&gt;" style="rounded=0;whiteSpace=wrap;html=1;" parent="im_YJyTrQw4Tyn21Mxfv-1" vertex="1">
          <mxGeometry x="319" y="160" width="70" height="76" as="geometry" />
        </mxCell>
        <mxCell id="im_YJyTrQw4Tyn21Mxfv-14" value="" style="endArrow=classic;html=1;rounded=0;exitX=1;exitY=0.5;exitDx=0;exitDy=0;entryX=0.491;entryY=1.051;entryDx=0;entryDy=0;entryPerimeter=0;" parent="im_YJyTrQw4Tyn21Mxfv-1" source="im_YJyTrQw4Tyn21Mxfv-16" target="im_YJyTrQw4Tyn21Mxfv-13" edge="1">
          <mxGeometry width="50" height="50" relative="1" as="geometry">
            <mxPoint x="205" y="250" as="sourcePoint" />
            <mxPoint x="255" y="200" as="targetPoint" />
            <Array as="points">
              <mxPoint x="355" y="297" />
            </Array>
          </mxGeometry>
        </mxCell>
        <mxCell id="im_YJyTrQw4Tyn21Mxfv-15" value="" style="endArrow=classic;html=1;rounded=0;exitX=0.5;exitY=0;exitDx=0;exitDy=0;entryX=1.01;entryY=0.551;entryDx=0;entryDy=0;entryPerimeter=0;" parent="im_YJyTrQw4Tyn21Mxfv-1" source="im_YJyTrQw4Tyn21Mxfv-13" target="im_YJyTrQw4Tyn21Mxfv-6" edge="1">
          <mxGeometry width="50" height="50" relative="1" as="geometry">
            <mxPoint x="205" y="250" as="sourcePoint" />
            <mxPoint x="255" y="200" as="targetPoint" />
            <Array as="points">
              <mxPoint x="355" y="129" />
            </Array>
          </mxGeometry>
        </mxCell>
        <mxCell id="im_YJyTrQw4Tyn21Mxfv-16" value="More&lt;div&gt;ratings?&lt;/div&gt;" style="rhombus;whiteSpace=wrap;html=1;" parent="im_YJyTrQw4Tyn21Mxfv-1" vertex="1">
          <mxGeometry x="265" y="257" width="80" height="80" as="geometry" />
        </mxCell>
        <mxCell id="im_YJyTrQw4Tyn21Mxfv-17" value="Equeue for each movie rating&lt;div&gt;&amp;nbsp;&lt;span style=&quot;background-color: transparent; color: light-dark(rgb(0, 0, 0), rgb(255, 255, 255));&quot;&gt;by&amp;nbsp;&lt;/span&gt;average&amp;nbsp;&lt;div&gt;&lt;span style=&quot;background-color: transparent; color: light-dark(rgb(0, 0, 0), rgb(255, 255, 255));&quot;&gt;movie ID&lt;/span&gt;&lt;/div&gt;&lt;/div&gt;" style="html=1;whiteSpace=wrap;" parent="im_YJyTrQw4Tyn21Mxfv-1" vertex="1">
          <mxGeometry x="70" y="308" width="110" height="65" as="geometry" />
        </mxCell>
        <mxCell id="im_YJyTrQw4Tyn21Mxfv-18" value="" style="endArrow=classic;html=1;rounded=0;exitX=0.5;exitY=1;exitDx=0;exitDy=0;entryX=0.491;entryY=-0.04;entryDx=0;entryDy=0;entryPerimeter=0;" parent="im_YJyTrQw4Tyn21Mxfv-1" source="im_YJyTrQw4Tyn21Mxfv-10" target="im_YJyTrQw4Tyn21Mxfv-17" edge="1">
          <mxGeometry width="50" height="50" relative="1" as="geometry">
            <mxPoint x="255" y="320" as="sourcePoint" />
            <mxPoint x="305" y="270" as="targetPoint" />
          </mxGeometry>
        </mxCell>
        <mxCell id="im_YJyTrQw4Tyn21Mxfv-20" value="" style="endArrow=classic;html=1;rounded=0;exitX=1;exitY=0.5;exitDx=0;exitDy=0;" parent="im_YJyTrQw4Tyn21Mxfv-1" source="im_YJyTrQw4Tyn21Mxfv-9" edge="1">
          <mxGeometry width="50" height="50" relative="1" as="geometry">
            <mxPoint x="205" y="290" as="sourcePoint" />
            <mxPoint x="305" y="260" as="targetPoint" />
            <Array as="points">
              <mxPoint x="305" y="211" />
            </Array>
          </mxGeometry>
        </mxCell>
        <mxCell id="im_YJyTrQw4Tyn21Mxfv-21" value="Equeue for each movie rating&lt;div&gt;&amp;nbsp;&lt;span style=&quot;background-color: transparent; color: light-dark(rgb(0, 0, 0), rgb(255, 255, 255));&quot;&gt;by&amp;nbsp;&lt;/span&gt;average&amp;nbsp;&lt;div&gt;&lt;span style=&quot;background-color: transparent; color: light-dark(rgb(0, 0, 0), rgb(255, 255, 255));&quot;&gt;movie ID&lt;/span&gt;&lt;/div&gt;&lt;/div&gt;" style="html=1;whiteSpace=wrap;" parent="im_YJyTrQw4Tyn21Mxfv-1" vertex="1">
          <mxGeometry x="278" y="379" width="110" height="60" as="geometry" />
        </mxCell>
        <mxCell id="im_YJyTrQw4Tyn21Mxfv-22" value="" style="endArrow=classic;html=1;rounded=0;exitX=0.5;exitY=1;exitDx=0;exitDy=0;entryX=0.244;entryY=0.031;entryDx=0;entryDy=0;entryPerimeter=0;" parent="im_YJyTrQw4Tyn21Mxfv-1" target="im_YJyTrQw4Tyn21Mxfv-21" edge="1">
          <mxGeometry width="50" height="50" relative="1" as="geometry">
            <mxPoint x="305" y="337" as="sourcePoint" />
            <mxPoint x="292.5" y="387" as="targetPoint" />
          </mxGeometry>
        </mxCell>
        <mxCell id="im_YJyTrQw4Tyn21Mxfv-23" value="" style="endArrow=classic;html=1;rounded=0;exitX=0.445;exitY=0.999;exitDx=0;exitDy=0;exitPerimeter=0;entryX=0.028;entryY=0.343;entryDx=0;entryDy=0;entryPerimeter=0;" parent="im_YJyTrQw4Tyn21Mxfv-1" source="im_YJyTrQw4Tyn21Mxfv-17" target="im_YJyTrQw4Tyn21Mxfv-24" edge="1">
          <mxGeometry width="50" height="50" relative="1" as="geometry">
            <mxPoint x="118.24000000000001" y="437" as="sourcePoint" />
            <mxPoint x="115" y="450" as="targetPoint" />
          </mxGeometry>
        </mxCell>
        <mxCell id="im_YJyTrQw4Tyn21Mxfv-24" value="" style="line;strokeWidth=1;fillColor=none;align=left;verticalAlign=middle;spacingTop=-1;spacingLeft=3;spacingRight=3;rotatable=0;labelPosition=right;points=[];portConstraint=eastwest;strokeColor=inherit;" parent="im_YJyTrQw4Tyn21Mxfv-1" vertex="1">
          <mxGeometry x="115" y="456" width="130" height="8" as="geometry" />
        </mxCell>
        <mxCell id="im_YJyTrQw4Tyn21Mxfv-25" value="" style="endArrow=classic;html=1;rounded=0;exitX=0.488;exitY=1.021;exitDx=0;exitDy=0;exitPerimeter=0;entryX=0.971;entryY=0.363;entryDx=0;entryDy=0;entryPerimeter=0;" parent="im_YJyTrQw4Tyn21Mxfv-1" source="im_YJyTrQw4Tyn21Mxfv-9" target="im_YJyTrQw4Tyn21Mxfv-24" edge="1">
          <mxGeometry width="50" height="50" relative="1" as="geometry">
            <mxPoint x="225" y="370" as="sourcePoint" />
            <mxPoint x="241" y="460.4597701149425" as="targetPoint" />
          </mxGeometry>
        </mxCell>
        <mxCell id="im_YJyTrQw4Tyn21Mxfv-26" value="Equeue fineshed&lt;br&gt;&lt;div&gt;signal&lt;/div&gt;" style="html=1;whiteSpace=wrap;" parent="im_YJyTrQw4Tyn21Mxfv-1" vertex="1">
          <mxGeometry x="125" y="485" width="110" height="50" as="geometry" />
        </mxCell>
        <mxCell id="im_YJyTrQw4Tyn21Mxfv-27" value="" style="endArrow=classic;html=1;rounded=0;entryX=0.45;entryY=-0.02;entryDx=0;entryDy=0;entryPerimeter=0;" parent="im_YJyTrQw4Tyn21Mxfv-1" edge="1">
          <mxGeometry width="50" height="50" relative="1" as="geometry">
            <mxPoint x="174" y="460" as="sourcePoint" />
            <mxPoint x="174.5" y="484.0000000000001" as="targetPoint" />
          </mxGeometry>
        </mxCell>
        <mxCell id="im_YJyTrQw4Tyn21Mxfv-28" value="Yes" style="text;strokeColor=none;fillColor=none;align=left;verticalAlign=middle;spacingLeft=4;spacingRight=4;overflow=hidden;points=[[0,0.5],[1,0.5]];portConstraint=eastwest;rotatable=0;whiteSpace=wrap;html=1;" parent="im_YJyTrQw4Tyn21Mxfv-1" vertex="1">
          <mxGeometry x="275" y="189.5" width="34" height="17" as="geometry" />
        </mxCell>
        <mxCell id="im_YJyTrQw4Tyn21Mxfv-29" value="Yes" style="text;strokeColor=none;fillColor=none;align=left;verticalAlign=middle;spacingLeft=4;spacingRight=4;overflow=hidden;points=[[0,0.5],[1,0.5]];portConstraint=eastwest;rotatable=0;whiteSpace=wrap;html=1;" parent="im_YJyTrQw4Tyn21Mxfv-1" vertex="1">
          <mxGeometry x="354" y="280" width="34" height="17" as="geometry" />
        </mxCell>
        <mxCell id="im_YJyTrQw4Tyn21Mxfv-30" value="Yes" style="text;strokeColor=none;fillColor=none;align=left;verticalAlign=middle;spacingLeft=4;spacingRight=4;overflow=hidden;points=[[0,0.5],[1,0.5]];portConstraint=eastwest;rotatable=0;whiteSpace=wrap;html=1;" parent="im_YJyTrQw4Tyn21Mxfv-1" vertex="1">
          <mxGeometry x="59" y="189.5" width="34" height="17" as="geometry" />
        </mxCell>
        <mxCell id="im_YJyTrQw4Tyn21Mxfv-31" value="No" style="text;strokeColor=none;fillColor=none;align=left;verticalAlign=middle;spacingLeft=4;spacingRight=4;overflow=hidden;points=[[0,0.5],[1,0.5]];portConstraint=eastwest;rotatable=0;whiteSpace=wrap;html=1;" parent="im_YJyTrQw4Tyn21Mxfv-1" vertex="1">
          <mxGeometry x="309" y="340" width="34" height="17" as="geometry" />
        </mxCell>
        <mxCell id="im_YJyTrQw4Tyn21Mxfv-32" value="No" style="text;strokeColor=none;fillColor=none;align=left;verticalAlign=middle;spacingLeft=4;spacingRight=4;overflow=hidden;points=[[0,0.5],[1,0.5]];portConstraint=eastwest;rotatable=0;whiteSpace=wrap;html=1;" parent="im_YJyTrQw4Tyn21Mxfv-1" vertex="1">
          <mxGeometry x="241" y="257" width="34" height="17" as="geometry" />
        </mxCell>
        <mxCell id="im_YJyTrQw4Tyn21Mxfv-33" value="No" style="text;strokeColor=none;fillColor=none;align=left;verticalAlign=middle;spacingLeft=4;spacingRight=4;overflow=hidden;points=[[0,0.5],[1,0.5]];portConstraint=eastwest;rotatable=0;whiteSpace=wrap;html=1;" parent="im_YJyTrQw4Tyn21Mxfv-1" vertex="1">
          <mxGeometry x="125" y="263" width="34" height="17" as="geometry" />
        </mxCell>
        <mxCell id="4dz-Hfty66m5E5_N2eCK-2" value="&lt;div&gt;Save&lt;/div&gt;&lt;div&gt;&lt;span style=&quot;background-color: transparent; color: light-dark(rgb(0, 0, 0), rgb(255, 255, 255));&quot;&gt;rating&lt;/span&gt;&lt;/div&gt;" style="rounded=0;whiteSpace=wrap;html=1;" parent="im_YJyTrQw4Tyn21Mxfv-1" vertex="1">
          <mxGeometry x="10" y="189" width="50" height="47" as="geometry" />
        </mxCell>
        <mxCell id="4dz-Hfty66m5E5_N2eCK-3" value="" style="endArrow=classic;html=1;rounded=0;exitX=0.5;exitY=0;exitDx=0;exitDy=0;entryX=0;entryY=0.5;entryDx=0;entryDy=0;" parent="im_YJyTrQw4Tyn21Mxfv-1" source="4dz-Hfty66m5E5_N2eCK-2" target="im_YJyTrQw4Tyn21Mxfv-5" edge="1">
          <mxGeometry width="50" height="50" relative="1" as="geometry">
            <mxPoint x="320" y="300" as="sourcePoint" />
            <mxPoint x="370" y="250" as="targetPoint" />
            <Array as="points">
              <mxPoint x="35" y="126" />
            </Array>
          </mxGeometry>
        </mxCell>
        <mxCell id="4dz-Hfty66m5E5_N2eCK-4" value="" style="endArrow=classic;html=1;rounded=0;exitX=0;exitY=0.5;exitDx=0;exitDy=0;entryX=1;entryY=0.468;entryDx=0;entryDy=0;entryPerimeter=0;" parent="im_YJyTrQw4Tyn21Mxfv-1" source="im_YJyTrQw4Tyn21Mxfv-10" target="4dz-Hfty66m5E5_N2eCK-2" edge="1">
          <mxGeometry width="50" height="50" relative="1" as="geometry">
            <mxPoint x="90" y="240" as="sourcePoint" />
            <mxPoint x="140" y="190" as="targetPoint" />
          </mxGeometry>
        </mxCell>
        <mxCell id="im_YJyTrQw4Tyn21Mxfv-34" value="Bottom&amp;amp;Top Rating Aggregator Worker" style="swimlane;whiteSpace=wrap;html=1;startSize=23;" parent="1" vertex="1">
          <mxGeometry x="-410" y="10" width="270" height="590" as="geometry" />
        </mxCell>
        <mxCell id="im_YJyTrQw4Tyn21Mxfv-35" value="Dequeue Ratings&amp;nbsp;Average&amp;nbsp;&lt;div&gt;Arg&amp;gt;=2000&lt;div&gt;movies&lt;/div&gt;&lt;/div&gt;" style="html=1;whiteSpace=wrap;" parent="im_YJyTrQw4Tyn21Mxfv-34" vertex="1">
          <mxGeometry x="59" y="39" width="110" height="63" as="geometry" />
        </mxCell>
        <mxCell id="im_YJyTrQw4Tyn21Mxfv-36" value="&lt;font style=&quot;font-size: 10px;&quot;&gt;More&amp;nbsp;&lt;/font&gt;&lt;div&gt;&lt;font style=&quot;font-size: 10px;&quot;&gt;average&lt;br&gt;&lt;/font&gt;&lt;/div&gt;&lt;div&gt;&lt;font style=&quot;font-size: 10px;&quot;&gt;ratings?&lt;/font&gt;&lt;/div&gt;" style="rhombus;whiteSpace=wrap;html=1;" parent="im_YJyTrQw4Tyn21Mxfv-34" vertex="1">
          <mxGeometry x="45" y="124" width="90" height="89" as="geometry" />
        </mxCell>
        <mxCell id="im_YJyTrQw4Tyn21Mxfv-37" value="" style="endArrow=classic;html=1;rounded=0;exitX=0.277;exitY=1.012;exitDx=0;exitDy=0;exitPerimeter=0;entryX=0.5;entryY=0;entryDx=0;entryDy=0;" parent="im_YJyTrQw4Tyn21Mxfv-34" source="im_YJyTrQw4Tyn21Mxfv-35" target="im_YJyTrQw4Tyn21Mxfv-36" edge="1">
          <mxGeometry width="50" height="50" relative="1" as="geometry">
            <mxPoint x="110.69000000000011" y="102" as="sourcePoint" />
            <mxPoint x="111.32" y="121" as="targetPoint" />
          </mxGeometry>
        </mxCell>
        <mxCell id="im_YJyTrQw4Tyn21Mxfv-38" value="Compare current with&amp;nbsp; bottom&amp;amp;top&lt;div&gt;and update&lt;/div&gt;" style="rounded=0;whiteSpace=wrap;html=1;" parent="im_YJyTrQw4Tyn21Mxfv-34" vertex="1">
          <mxGeometry x="172" y="128" width="77" height="80" as="geometry" />
        </mxCell>
        <mxCell id="im_YJyTrQw4Tyn21Mxfv-39" value="" style="endArrow=classic;html=1;rounded=0;exitX=0.5;exitY=0;exitDx=0;exitDy=0;entryX=1;entryY=0.5;entryDx=0;entryDy=0;" parent="im_YJyTrQw4Tyn21Mxfv-34" source="im_YJyTrQw4Tyn21Mxfv-38" target="im_YJyTrQw4Tyn21Mxfv-35" edge="1">
          <mxGeometry width="50" height="50" relative="1" as="geometry">
            <mxPoint x="54" y="200" as="sourcePoint" />
            <mxPoint x="104" y="150" as="targetPoint" />
            <Array as="points">
              <mxPoint x="211" y="70" />
            </Array>
          </mxGeometry>
        </mxCell>
        <mxCell id="im_YJyTrQw4Tyn21Mxfv-41" value="" style="endArrow=classic;html=1;rounded=0;exitX=1;exitY=0.5;exitDx=0;exitDy=0;entryX=0;entryY=0.5;entryDx=0;entryDy=0;" parent="im_YJyTrQw4Tyn21Mxfv-34" source="im_YJyTrQw4Tyn21Mxfv-36" target="im_YJyTrQw4Tyn21Mxfv-38" edge="1">
          <mxGeometry width="50" height="50" relative="1" as="geometry">
            <mxPoint x="-100" y="280" as="sourcePoint" />
            <mxPoint x="-50" y="230" as="targetPoint" />
          </mxGeometry>
        </mxCell>
        <mxCell id="im_YJyTrQw4Tyn21Mxfv-43" value="Equeue to&lt;div&gt;Reports Queue&lt;/div&gt;" style="html=1;whiteSpace=wrap;" parent="im_YJyTrQw4Tyn21Mxfv-34" vertex="1">
          <mxGeometry x="36" y="256" width="110" height="50" as="geometry" />
        </mxCell>
        <mxCell id="im_YJyTrQw4Tyn21Mxfv-44" value="" style="endArrow=classic;html=1;rounded=0;exitX=0.5;exitY=1;exitDx=0;exitDy=0;entryX=0.494;entryY=0.004;entryDx=0;entryDy=0;entryPerimeter=0;" parent="im_YJyTrQw4Tyn21Mxfv-34" target="im_YJyTrQw4Tyn21Mxfv-43" edge="1">
          <mxGeometry width="50" height="50" relative="1" as="geometry">
            <mxPoint x="90" y="213" as="sourcePoint" />
            <mxPoint x="161" y="156" as="targetPoint" />
          </mxGeometry>
        </mxCell>
        <mxCell id="im_YJyTrQw4Tyn21Mxfv-45" value="" style="ellipse;html=1;shape=endState;fillColor=#000000;strokeColor=#ff0000;" parent="im_YJyTrQw4Tyn21Mxfv-34" vertex="1">
          <mxGeometry x="76" y="346" width="30" height="30" as="geometry" />
        </mxCell>
        <mxCell id="im_YJyTrQw4Tyn21Mxfv-46" value="" style="endArrow=classic;html=1;rounded=0;exitX=0.5;exitY=1;exitDx=0;exitDy=0;entryX=0.5;entryY=0;entryDx=0;entryDy=0;" parent="im_YJyTrQw4Tyn21Mxfv-34" source="im_YJyTrQw4Tyn21Mxfv-43" target="im_YJyTrQw4Tyn21Mxfv-45" edge="1">
          <mxGeometry width="50" height="50" relative="1" as="geometry">
            <mxPoint x="81" y="196" as="sourcePoint" />
            <mxPoint x="131" y="146" as="targetPoint" />
          </mxGeometry>
        </mxCell>
        <mxCell id="im_YJyTrQw4Tyn21Mxfv-47" value="Yes" style="text;strokeColor=none;fillColor=none;align=left;verticalAlign=middle;spacingLeft=4;spacingRight=4;overflow=hidden;points=[[0,0.5],[1,0.5]];portConstraint=eastwest;rotatable=0;whiteSpace=wrap;html=1;" parent="im_YJyTrQw4Tyn21Mxfv-34" vertex="1">
          <mxGeometry x="130" y="150" width="34" height="17" as="geometry" />
        </mxCell>
        <mxCell id="im_YJyTrQw4Tyn21Mxfv-48" value="Yes" style="text;strokeColor=none;fillColor=none;align=left;verticalAlign=middle;spacingLeft=4;spacingRight=4;overflow=hidden;points=[[0,0.5],[1,0.5]];portConstraint=eastwest;rotatable=0;whiteSpace=wrap;html=1;" parent="im_YJyTrQw4Tyn21Mxfv-34" vertex="1">
          <mxGeometry x="210" y="111" width="34" height="17" as="geometry" />
        </mxCell>
        <mxCell id="im_YJyTrQw4Tyn21Mxfv-49" value="No" style="text;strokeColor=none;fillColor=none;align=left;verticalAlign=middle;spacingLeft=4;spacingRight=4;overflow=hidden;points=[[0,0.5],[1,0.5]];portConstraint=eastwest;rotatable=0;whiteSpace=wrap;html=1;" parent="im_YJyTrQw4Tyn21Mxfv-34" vertex="1">
          <mxGeometry x="90" y="213" width="34" height="17" as="geometry" />
        </mxCell>
        <mxCell id="im_YJyTrQw4Tyn21Mxfv-50" value="" style="endArrow=classic;html=1;rounded=0;exitX=0.5;exitY=1;exitDx=0;exitDy=0;entryX=0;entryY=0.5;entryDx=0;entryDy=0;dashed=1;" parent="1" source="im_YJyTrQw4Tyn21Mxfv-26" target="im_YJyTrQw4Tyn21Mxfv-35" edge="1">
          <mxGeometry width="50" height="50" relative="1" as="geometry">
            <mxPoint x="-340" y="550" as="sourcePoint" />
            <mxPoint x="-290" y="500" as="targetPoint" />
            <Array as="points">
              <mxPoint x="-640" y="580" />
              <mxPoint x="-390" y="580" />
              <mxPoint x="-390" y="80" />
            </Array>
          </mxGeometry>
        </mxCell>
        <mxCell id="im_YJyTrQw4Tyn21Mxfv-51" value="" style="endArrow=none;html=1;rounded=0;exitX=0;exitY=0.5;exitDx=0;exitDy=0;startFill=0;dashed=1;" parent="1" source="im_YJyTrQw4Tyn21Mxfv-17" edge="1">
          <mxGeometry width="50" height="50" relative="1" as="geometry">
            <mxPoint x="-301" y="500" as="sourcePoint" />
            <mxPoint x="-601" y="580" as="targetPoint" />
            <Array as="points">
              <mxPoint x="-790" y="350" />
              <mxPoint x="-790" y="580" />
            </Array>
          </mxGeometry>
        </mxCell>
        <mxCell id="im_YJyTrQw4Tyn21Mxfv-52" value="" style="endArrow=none;dashed=1;html=1;rounded=0;exitX=0.994;exitY=0.518;exitDx=0;exitDy=0;exitPerimeter=0;" parent="1" source="im_YJyTrQw4Tyn21Mxfv-21" edge="1">
          <mxGeometry width="50" height="50" relative="1" as="geometry">
            <mxPoint x="-430" y="420" as="sourcePoint" />
            <mxPoint x="-390" y="420" as="targetPoint" />
          </mxGeometry>
        </mxCell>
      </root>
    </mxGraphModel>
  </diagram>
  <diagram name="4_Top_10_actors" id="FiuQ8svoyQ3CGZMIoXjR">
    <mxGraphModel dx="1781" dy="655" grid="1" gridSize="10" guides="1" tooltips="1" connect="1" arrows="1" fold="1" page="1" pageScale="1" pageWidth="827" pageHeight="1169" math="0" shadow="0">
      <root>
        <mxCell id="0" />
        <mxCell id="1" parent="0" />
        <mxCell id="JtXjp0ilDM0jRoYNNazb-1" value="Group By Movie ID Worker" style="swimlane;whiteSpace=wrap;html=1;" parent="1" vertex="1">
          <mxGeometry x="-820" y="10" width="420" height="610" as="geometry" />
        </mxCell>
        <mxCell id="JtXjp0ilDM0jRoYNNazb-3" value="" style="ellipse;html=1;shape=startState;fillColor=#000000;strokeColor=#ff0000;" parent="JtXjp0ilDM0jRoYNNazb-1" vertex="1">
          <mxGeometry x="190" y="33" width="30" height="30" as="geometry" />
        </mxCell>
        <mxCell id="JtXjp0ilDM0jRoYNNazb-7" value="" style="line;strokeWidth=1;fillColor=none;align=left;verticalAlign=middle;spacingTop=-1;spacingLeft=3;spacingRight=3;rotatable=0;labelPosition=right;points=[];portConstraint=eastwest;strokeColor=inherit;" parent="JtXjp0ilDM0jRoYNNazb-1" vertex="1">
          <mxGeometry x="155" y="75" width="100" height="8" as="geometry" />
        </mxCell>
        <mxCell id="JtXjp0ilDM0jRoYNNazb-9" value="" style="endArrow=classic;html=1;rounded=0;exitX=0.487;exitY=0.94;exitDx=0;exitDy=0;exitPerimeter=0;entryX=0.5;entryY=0.125;entryDx=0;entryDy=0;entryPerimeter=0;" parent="JtXjp0ilDM0jRoYNNazb-1" source="JtXjp0ilDM0jRoYNNazb-3" target="JtXjp0ilDM0jRoYNNazb-7" edge="1">
          <mxGeometry width="50" height="50" relative="1" as="geometry">
            <mxPoint x="235" y="180" as="sourcePoint" />
            <mxPoint x="285" y="130" as="targetPoint" />
          </mxGeometry>
        </mxCell>
        <mxCell id="JtXjp0ilDM0jRoYNNazb-10" value="Dequeue Arg&amp;gt;2000&lt;div&gt;movies&amp;nbsp;&lt;/div&gt;" style="html=1;whiteSpace=wrap;" parent="JtXjp0ilDM0jRoYNNazb-1" vertex="1">
          <mxGeometry x="82" y="101" width="110" height="50" as="geometry" />
        </mxCell>
        <mxCell id="JtXjp0ilDM0jRoYNNazb-11" value="Dequeue Credits" style="html=1;whiteSpace=wrap;" parent="JtXjp0ilDM0jRoYNNazb-1" vertex="1">
          <mxGeometry x="220" y="101" width="110" height="50" as="geometry" />
        </mxCell>
        <mxCell id="JtXjp0ilDM0jRoYNNazb-12" value="" style="endArrow=classic;html=1;rounded=0;exitX=0.094;exitY=0.5;exitDx=0;exitDy=0;exitPerimeter=0;entryX=0.75;entryY=0;entryDx=0;entryDy=0;" parent="JtXjp0ilDM0jRoYNNazb-1" source="JtXjp0ilDM0jRoYNNazb-7" target="JtXjp0ilDM0jRoYNNazb-10" edge="1">
          <mxGeometry width="50" height="50" relative="1" as="geometry">
            <mxPoint x="335" y="150" as="sourcePoint" />
            <mxPoint x="385" y="100" as="targetPoint" />
          </mxGeometry>
        </mxCell>
        <mxCell id="JtXjp0ilDM0jRoYNNazb-13" value="" style="endArrow=classic;html=1;rounded=0;entryX=0.25;entryY=0;entryDx=0;entryDy=0;exitX=0.927;exitY=0.519;exitDx=0;exitDy=0;exitPerimeter=0;" parent="JtXjp0ilDM0jRoYNNazb-1" target="JtXjp0ilDM0jRoYNNazb-11" edge="1">
          <mxGeometry width="50" height="50" relative="1" as="geometry">
            <mxPoint x="246.70000000000005" y="79.15200000000004" as="sourcePoint" />
            <mxPoint x="253" y="100" as="targetPoint" />
          </mxGeometry>
        </mxCell>
        <mxCell id="JtXjp0ilDM0jRoYNNazb-16" value="More&lt;br&gt;&lt;div&gt;&lt;span style=&quot;background-color: transparent; color: light-dark(rgb(0, 0, 0), rgb(255, 255, 255));&quot;&gt;credits?&lt;/span&gt;&lt;/div&gt;" style="rhombus;whiteSpace=wrap;html=1;" parent="JtXjp0ilDM0jRoYNNazb-1" vertex="1">
          <mxGeometry x="211" y="171" width="80" height="80" as="geometry" />
        </mxCell>
        <mxCell id="JtXjp0ilDM0jRoYNNazb-17" value="More&lt;div&gt;movies?&lt;/div&gt;" style="rhombus;whiteSpace=wrap;html=1;" parent="JtXjp0ilDM0jRoYNNazb-1" vertex="1">
          <mxGeometry x="93" y="171" width="80" height="80" as="geometry" />
        </mxCell>
        <mxCell id="JtXjp0ilDM0jRoYNNazb-15" value="" style="endArrow=classic;html=1;rounded=0;exitX=0.461;exitY=1.007;exitDx=0;exitDy=0;exitPerimeter=0;entryX=0.5;entryY=-0.012;entryDx=0;entryDy=0;entryPerimeter=0;" parent="JtXjp0ilDM0jRoYNNazb-1" source="JtXjp0ilDM0jRoYNNazb-10" target="JtXjp0ilDM0jRoYNNazb-17" edge="1">
          <mxGeometry width="50" height="50" relative="1" as="geometry">
            <mxPoint x="150" y="240" as="sourcePoint" />
            <mxPoint x="133" y="175.3" as="targetPoint" />
          </mxGeometry>
        </mxCell>
        <mxCell id="JtXjp0ilDM0jRoYNNazb-18" value="" style="endArrow=classic;html=1;rounded=0;exitX=0.277;exitY=1.012;exitDx=0;exitDy=0;exitPerimeter=0;entryX=0.5;entryY=0;entryDx=0;entryDy=0;" parent="JtXjp0ilDM0jRoYNNazb-1" source="JtXjp0ilDM0jRoYNNazb-11" target="JtXjp0ilDM0jRoYNNazb-16" edge="1">
          <mxGeometry width="50" height="50" relative="1" as="geometry">
            <mxPoint x="271.6900000000001" y="152" as="sourcePoint" />
            <mxPoint x="272.32" y="171" as="targetPoint" />
          </mxGeometry>
        </mxCell>
        <mxCell id="JtXjp0ilDM0jRoYNNazb-20" value="&lt;div&gt;Save&lt;/div&gt;incremented&lt;div&gt;cast&lt;/div&gt;&lt;div&gt;movies count&lt;/div&gt;" style="rounded=0;whiteSpace=wrap;html=1;" parent="JtXjp0ilDM0jRoYNNazb-1" vertex="1">
          <mxGeometry x="329" y="160" width="70" height="76" as="geometry" />
        </mxCell>
        <mxCell id="JtXjp0ilDM0jRoYNNazb-21" value="" style="endArrow=classic;html=1;rounded=0;exitX=1;exitY=0.5;exitDx=0;exitDy=0;entryX=0.491;entryY=1.051;entryDx=0;entryDy=0;entryPerimeter=0;" parent="JtXjp0ilDM0jRoYNNazb-1" source="JtXjp0ilDM0jRoYNNazb-24" target="JtXjp0ilDM0jRoYNNazb-20" edge="1">
          <mxGeometry width="50" height="50" relative="1" as="geometry">
            <mxPoint x="215" y="250" as="sourcePoint" />
            <mxPoint x="265" y="200" as="targetPoint" />
            <Array as="points">
              <mxPoint x="365" y="297" />
            </Array>
          </mxGeometry>
        </mxCell>
        <mxCell id="JtXjp0ilDM0jRoYNNazb-22" value="" style="endArrow=classic;html=1;rounded=0;exitX=0.5;exitY=0;exitDx=0;exitDy=0;entryX=1.01;entryY=0.551;entryDx=0;entryDy=0;entryPerimeter=0;" parent="JtXjp0ilDM0jRoYNNazb-1" source="JtXjp0ilDM0jRoYNNazb-20" target="JtXjp0ilDM0jRoYNNazb-11" edge="1">
          <mxGeometry width="50" height="50" relative="1" as="geometry">
            <mxPoint x="215" y="250" as="sourcePoint" />
            <mxPoint x="265" y="200" as="targetPoint" />
            <Array as="points">
              <mxPoint x="365" y="129" />
            </Array>
          </mxGeometry>
        </mxCell>
        <mxCell id="JtXjp0ilDM0jRoYNNazb-24" value="More&lt;div&gt;movies?&lt;/div&gt;" style="rhombus;whiteSpace=wrap;html=1;" parent="JtXjp0ilDM0jRoYNNazb-1" vertex="1">
          <mxGeometry x="275" y="257" width="80" height="80" as="geometry" />
        </mxCell>
        <mxCell id="JtXjp0ilDM0jRoYNNazb-26" value="Equeue for each actor movie count&lt;div&gt;by actor ID&lt;/div&gt;" style="html=1;whiteSpace=wrap;" parent="JtXjp0ilDM0jRoYNNazb-1" vertex="1">
          <mxGeometry x="80" y="325" width="110" height="50" as="geometry" />
        </mxCell>
        <mxCell id="JtXjp0ilDM0jRoYNNazb-27" value="" style="endArrow=classic;html=1;rounded=0;exitX=0.494;exitY=1.03;exitDx=0;exitDy=0;exitPerimeter=0;entryX=0.491;entryY=-0.04;entryDx=0;entryDy=0;entryPerimeter=0;" parent="JtXjp0ilDM0jRoYNNazb-1" source="JtXjp0ilDM0jRoYNNazb-17" target="JtXjp0ilDM0jRoYNNazb-26" edge="1">
          <mxGeometry width="50" height="50" relative="1" as="geometry">
            <mxPoint x="265" y="320" as="sourcePoint" />
            <mxPoint x="315" y="270" as="targetPoint" />
          </mxGeometry>
        </mxCell>
        <mxCell id="JtXjp0ilDM0jRoYNNazb-29" value="" style="endArrow=classic;html=1;rounded=0;exitX=1;exitY=0.5;exitDx=0;exitDy=0;" parent="JtXjp0ilDM0jRoYNNazb-1" source="JtXjp0ilDM0jRoYNNazb-16" edge="1">
          <mxGeometry width="50" height="50" relative="1" as="geometry">
            <mxPoint x="215" y="290" as="sourcePoint" />
            <mxPoint x="315" y="260" as="targetPoint" />
            <Array as="points">
              <mxPoint x="315" y="211" />
            </Array>
          </mxGeometry>
        </mxCell>
        <mxCell id="JtXjp0ilDM0jRoYNNazb-30" value="Equeue for each actor movie count&lt;div&gt;by actor ID&lt;/div&gt;" style="html=1;whiteSpace=wrap;" parent="JtXjp0ilDM0jRoYNNazb-1" vertex="1">
          <mxGeometry x="288" y="384" width="110" height="50" as="geometry" />
        </mxCell>
        <mxCell id="JtXjp0ilDM0jRoYNNazb-31" value="" style="endArrow=classic;html=1;rounded=0;exitX=0.5;exitY=1;exitDx=0;exitDy=0;entryX=0.244;entryY=0.031;entryDx=0;entryDy=0;entryPerimeter=0;" parent="JtXjp0ilDM0jRoYNNazb-1" target="JtXjp0ilDM0jRoYNNazb-30" edge="1">
          <mxGeometry width="50" height="50" relative="1" as="geometry">
            <mxPoint x="315" y="337" as="sourcePoint" />
            <mxPoint x="302.5" y="387" as="targetPoint" />
          </mxGeometry>
        </mxCell>
        <mxCell id="JtXjp0ilDM0jRoYNNazb-33" value="" style="endArrow=classic;html=1;rounded=0;exitX=0.445;exitY=0.999;exitDx=0;exitDy=0;exitPerimeter=0;entryX=0.028;entryY=0.343;entryDx=0;entryDy=0;entryPerimeter=0;" parent="JtXjp0ilDM0jRoYNNazb-1" source="JtXjp0ilDM0jRoYNNazb-26" target="JtXjp0ilDM0jRoYNNazb-34" edge="1">
          <mxGeometry width="50" height="50" relative="1" as="geometry">
            <mxPoint x="128.24" y="437" as="sourcePoint" />
            <mxPoint x="125" y="450" as="targetPoint" />
          </mxGeometry>
        </mxCell>
        <mxCell id="JtXjp0ilDM0jRoYNNazb-34" value="" style="line;strokeWidth=1;fillColor=none;align=left;verticalAlign=middle;spacingTop=-1;spacingLeft=3;spacingRight=3;rotatable=0;labelPosition=right;points=[];portConstraint=eastwest;strokeColor=inherit;" parent="JtXjp0ilDM0jRoYNNazb-1" vertex="1">
          <mxGeometry x="125" y="456" width="130" height="8" as="geometry" />
        </mxCell>
        <mxCell id="JtXjp0ilDM0jRoYNNazb-32" value="" style="endArrow=classic;html=1;rounded=0;exitX=0.488;exitY=1.021;exitDx=0;exitDy=0;exitPerimeter=0;entryX=0.971;entryY=0.363;entryDx=0;entryDy=0;entryPerimeter=0;" parent="JtXjp0ilDM0jRoYNNazb-1" source="JtXjp0ilDM0jRoYNNazb-16" target="JtXjp0ilDM0jRoYNNazb-34" edge="1">
          <mxGeometry width="50" height="50" relative="1" as="geometry">
            <mxPoint x="235" y="370" as="sourcePoint" />
            <mxPoint x="251" y="460.4597701149425" as="targetPoint" />
          </mxGeometry>
        </mxCell>
        <mxCell id="JtXjp0ilDM0jRoYNNazb-35" value="Equeue fineshed&lt;br&gt;&lt;div&gt;signal&lt;/div&gt;" style="html=1;whiteSpace=wrap;" parent="JtXjp0ilDM0jRoYNNazb-1" vertex="1">
          <mxGeometry x="135" y="485" width="110" height="50" as="geometry" />
        </mxCell>
        <mxCell id="JtXjp0ilDM0jRoYNNazb-36" value="" style="endArrow=classic;html=1;rounded=0;entryX=0.45;entryY=-0.02;entryDx=0;entryDy=0;entryPerimeter=0;" parent="JtXjp0ilDM0jRoYNNazb-1" edge="1">
          <mxGeometry width="50" height="50" relative="1" as="geometry">
            <mxPoint x="184" y="460" as="sourcePoint" />
            <mxPoint x="184.5" y="484.0000000000001" as="targetPoint" />
          </mxGeometry>
        </mxCell>
        <mxCell id="JtXjp0ilDM0jRoYNNazb-58" value="Yes" style="text;strokeColor=none;fillColor=none;align=left;verticalAlign=middle;spacingLeft=4;spacingRight=4;overflow=hidden;points=[[0,0.5],[1,0.5]];portConstraint=eastwest;rotatable=0;whiteSpace=wrap;html=1;" parent="JtXjp0ilDM0jRoYNNazb-1" vertex="1">
          <mxGeometry x="285" y="189.5" width="34" height="17" as="geometry" />
        </mxCell>
        <mxCell id="JtXjp0ilDM0jRoYNNazb-59" value="Yes" style="text;strokeColor=none;fillColor=none;align=left;verticalAlign=middle;spacingLeft=4;spacingRight=4;overflow=hidden;points=[[0,0.5],[1,0.5]];portConstraint=eastwest;rotatable=0;whiteSpace=wrap;html=1;" parent="JtXjp0ilDM0jRoYNNazb-1" vertex="1">
          <mxGeometry x="364" y="280" width="34" height="17" as="geometry" />
        </mxCell>
        <mxCell id="JtXjp0ilDM0jRoYNNazb-60" value="Yes" style="text;strokeColor=none;fillColor=none;align=left;verticalAlign=middle;spacingLeft=4;spacingRight=4;overflow=hidden;points=[[0,0.5],[1,0.5]];portConstraint=eastwest;rotatable=0;whiteSpace=wrap;html=1;" parent="JtXjp0ilDM0jRoYNNazb-1" vertex="1">
          <mxGeometry x="69" y="189.5" width="34" height="17" as="geometry" />
        </mxCell>
        <mxCell id="JtXjp0ilDM0jRoYNNazb-64" value="No" style="text;strokeColor=none;fillColor=none;align=left;verticalAlign=middle;spacingLeft=4;spacingRight=4;overflow=hidden;points=[[0,0.5],[1,0.5]];portConstraint=eastwest;rotatable=0;whiteSpace=wrap;html=1;" parent="JtXjp0ilDM0jRoYNNazb-1" vertex="1">
          <mxGeometry x="319" y="340" width="34" height="17" as="geometry" />
        </mxCell>
        <mxCell id="JtXjp0ilDM0jRoYNNazb-65" value="No" style="text;strokeColor=none;fillColor=none;align=left;verticalAlign=middle;spacingLeft=4;spacingRight=4;overflow=hidden;points=[[0,0.5],[1,0.5]];portConstraint=eastwest;rotatable=0;whiteSpace=wrap;html=1;" parent="JtXjp0ilDM0jRoYNNazb-1" vertex="1">
          <mxGeometry x="251" y="257" width="34" height="17" as="geometry" />
        </mxCell>
        <mxCell id="JtXjp0ilDM0jRoYNNazb-66" value="No" style="text;strokeColor=none;fillColor=none;align=left;verticalAlign=middle;spacingLeft=4;spacingRight=4;overflow=hidden;points=[[0,0.5],[1,0.5]];portConstraint=eastwest;rotatable=0;whiteSpace=wrap;html=1;" parent="JtXjp0ilDM0jRoYNNazb-1" vertex="1">
          <mxGeometry x="135" y="263" width="34" height="17" as="geometry" />
        </mxCell>
        <mxCell id="JtXjp0ilDM0jRoYNNazb-37" value="Top 10 Aggregator Worker" style="swimlane;whiteSpace=wrap;html=1;startSize=23;" parent="1" vertex="1">
          <mxGeometry x="-400" y="10" width="260" height="610" as="geometry" />
        </mxCell>
        <mxCell id="JtXjp0ilDM0jRoYNNazb-39" value="Dequeue actors by movies count&amp;nbsp;" style="html=1;whiteSpace=wrap;" parent="JtXjp0ilDM0jRoYNNazb-37" vertex="1">
          <mxGeometry x="59" y="53" width="110" height="50" as="geometry" />
        </mxCell>
        <mxCell id="JtXjp0ilDM0jRoYNNazb-40" value="&lt;font style=&quot;font-size: 10px;&quot;&gt;More&amp;nbsp;&lt;/font&gt;&lt;div&gt;&lt;font style=&quot;font-size: 10px;&quot;&gt;actors&lt;br&gt;&lt;/font&gt;&lt;div&gt;&lt;font style=&quot;font-size: 10px;&quot;&gt;movies&lt;/font&gt;&lt;/div&gt;&lt;div&gt;&lt;font style=&quot;font-size: 10px;&quot;&gt;count?&lt;/font&gt;&lt;/div&gt;&lt;/div&gt;" style="rhombus;whiteSpace=wrap;html=1;" parent="JtXjp0ilDM0jRoYNNazb-37" vertex="1">
          <mxGeometry x="45" y="124" width="90" height="89" as="geometry" />
        </mxCell>
        <mxCell id="JtXjp0ilDM0jRoYNNazb-41" value="" style="endArrow=classic;html=1;rounded=0;exitX=0.277;exitY=1.012;exitDx=0;exitDy=0;exitPerimeter=0;entryX=0.5;entryY=0;entryDx=0;entryDy=0;" parent="JtXjp0ilDM0jRoYNNazb-37" source="JtXjp0ilDM0jRoYNNazb-39" target="JtXjp0ilDM0jRoYNNazb-40" edge="1">
          <mxGeometry width="50" height="50" relative="1" as="geometry">
            <mxPoint x="110.69000000000011" y="102" as="sourcePoint" />
            <mxPoint x="111.32" y="121" as="targetPoint" />
          </mxGeometry>
        </mxCell>
        <mxCell id="JtXjp0ilDM0jRoYNNazb-42" value="Save incremented&lt;div&gt;actor&lt;/div&gt;&lt;div&gt;movies count&lt;/div&gt;" style="rounded=0;whiteSpace=wrap;html=1;" parent="JtXjp0ilDM0jRoYNNazb-37" vertex="1">
          <mxGeometry x="172" y="128" width="77" height="80" as="geometry" />
        </mxCell>
        <mxCell id="JtXjp0ilDM0jRoYNNazb-44" value="" style="endArrow=classic;html=1;rounded=0;exitX=0.5;exitY=0;exitDx=0;exitDy=0;entryX=1.01;entryY=0.551;entryDx=0;entryDy=0;entryPerimeter=0;" parent="JtXjp0ilDM0jRoYNNazb-37" source="JtXjp0ilDM0jRoYNNazb-42" target="JtXjp0ilDM0jRoYNNazb-39" edge="1">
          <mxGeometry width="50" height="50" relative="1" as="geometry">
            <mxPoint x="54" y="200" as="sourcePoint" />
            <mxPoint x="104" y="150" as="targetPoint" />
            <Array as="points">
              <mxPoint x="211" y="80" />
            </Array>
          </mxGeometry>
        </mxCell>
        <mxCell id="JtXjp0ilDM0jRoYNNazb-47" value="Calculate&lt;div&gt;Top 10&lt;/div&gt;" style="html=1;whiteSpace=wrap;" parent="JtXjp0ilDM0jRoYNNazb-37" vertex="1">
          <mxGeometry x="35" y="257" width="110" height="50" as="geometry" />
        </mxCell>
        <mxCell id="JtXjp0ilDM0jRoYNNazb-49" value="" style="endArrow=classic;html=1;rounded=0;exitX=1;exitY=0.5;exitDx=0;exitDy=0;entryX=0;entryY=0.5;entryDx=0;entryDy=0;" parent="JtXjp0ilDM0jRoYNNazb-37" source="JtXjp0ilDM0jRoYNNazb-40" target="JtXjp0ilDM0jRoYNNazb-42" edge="1">
          <mxGeometry width="50" height="50" relative="1" as="geometry">
            <mxPoint x="-100" y="280" as="sourcePoint" />
            <mxPoint x="-50" y="230" as="targetPoint" />
          </mxGeometry>
        </mxCell>
        <mxCell id="JtXjp0ilDM0jRoYNNazb-50" value="" style="endArrow=classic;html=1;rounded=0;exitX=0.5;exitY=1;exitDx=0;exitDy=0;entryX=0.5;entryY=0;entryDx=0;entryDy=0;" parent="JtXjp0ilDM0jRoYNNazb-37" source="JtXjp0ilDM0jRoYNNazb-40" target="JtXjp0ilDM0jRoYNNazb-47" edge="1">
          <mxGeometry width="50" height="50" relative="1" as="geometry">
            <mxPoint x="-100" y="280" as="sourcePoint" />
            <mxPoint x="-50" y="230" as="targetPoint" />
          </mxGeometry>
        </mxCell>
        <mxCell id="JtXjp0ilDM0jRoYNNazb-51" value="Equeue to&lt;div&gt;Reports Queue&lt;/div&gt;" style="html=1;whiteSpace=wrap;" parent="JtXjp0ilDM0jRoYNNazb-37" vertex="1">
          <mxGeometry x="36" y="350" width="110" height="50" as="geometry" />
        </mxCell>
        <mxCell id="JtXjp0ilDM0jRoYNNazb-52" value="" style="endArrow=classic;html=1;rounded=0;exitX=0.5;exitY=1;exitDx=0;exitDy=0;entryX=0.494;entryY=0.004;entryDx=0;entryDy=0;entryPerimeter=0;" parent="JtXjp0ilDM0jRoYNNazb-37" source="JtXjp0ilDM0jRoYNNazb-47" target="JtXjp0ilDM0jRoYNNazb-51" edge="1">
          <mxGeometry width="50" height="50" relative="1" as="geometry">
            <mxPoint x="111" y="300" as="sourcePoint" />
            <mxPoint x="161" y="250" as="targetPoint" />
          </mxGeometry>
        </mxCell>
        <mxCell id="JtXjp0ilDM0jRoYNNazb-53" value="" style="ellipse;html=1;shape=endState;fillColor=#000000;strokeColor=#ff0000;" parent="JtXjp0ilDM0jRoYNNazb-37" vertex="1">
          <mxGeometry x="76" y="440" width="30" height="30" as="geometry" />
        </mxCell>
        <mxCell id="JtXjp0ilDM0jRoYNNazb-54" value="" style="endArrow=classic;html=1;rounded=0;exitX=0.5;exitY=1;exitDx=0;exitDy=0;entryX=0.5;entryY=0;entryDx=0;entryDy=0;" parent="JtXjp0ilDM0jRoYNNazb-37" source="JtXjp0ilDM0jRoYNNazb-51" target="JtXjp0ilDM0jRoYNNazb-53" edge="1">
          <mxGeometry width="50" height="50" relative="1" as="geometry">
            <mxPoint x="81" y="290" as="sourcePoint" />
            <mxPoint x="131" y="240" as="targetPoint" />
          </mxGeometry>
        </mxCell>
        <mxCell id="JtXjp0ilDM0jRoYNNazb-61" value="Yes" style="text;strokeColor=none;fillColor=none;align=left;verticalAlign=middle;spacingLeft=4;spacingRight=4;overflow=hidden;points=[[0,0.5],[1,0.5]];portConstraint=eastwest;rotatable=0;whiteSpace=wrap;html=1;" parent="JtXjp0ilDM0jRoYNNazb-37" vertex="1">
          <mxGeometry x="130" y="150" width="34" height="17" as="geometry" />
        </mxCell>
        <mxCell id="JtXjp0ilDM0jRoYNNazb-62" value="Yes" style="text;strokeColor=none;fillColor=none;align=left;verticalAlign=middle;spacingLeft=4;spacingRight=4;overflow=hidden;points=[[0,0.5],[1,0.5]];portConstraint=eastwest;rotatable=0;whiteSpace=wrap;html=1;" parent="JtXjp0ilDM0jRoYNNazb-37" vertex="1">
          <mxGeometry x="210" y="111" width="34" height="17" as="geometry" />
        </mxCell>
        <mxCell id="JtXjp0ilDM0jRoYNNazb-63" value="No" style="text;strokeColor=none;fillColor=none;align=left;verticalAlign=middle;spacingLeft=4;spacingRight=4;overflow=hidden;points=[[0,0.5],[1,0.5]];portConstraint=eastwest;rotatable=0;whiteSpace=wrap;html=1;" parent="JtXjp0ilDM0jRoYNNazb-37" vertex="1">
          <mxGeometry x="90" y="213" width="34" height="17" as="geometry" />
        </mxCell>
        <mxCell id="JtXjp0ilDM0jRoYNNazb-55" value="" style="endArrow=classic;html=1;rounded=0;exitX=0.5;exitY=1;exitDx=0;exitDy=0;entryX=0;entryY=0.5;entryDx=0;entryDy=0;dashed=1;" parent="1" source="JtXjp0ilDM0jRoYNNazb-35" target="JtXjp0ilDM0jRoYNNazb-39" edge="1">
          <mxGeometry width="50" height="50" relative="1" as="geometry">
            <mxPoint x="-330" y="550" as="sourcePoint" />
            <mxPoint x="-280" y="500" as="targetPoint" />
            <Array as="points">
              <mxPoint x="-630" y="580" />
              <mxPoint x="-380" y="580" />
              <mxPoint x="-380" y="88" />
            </Array>
          </mxGeometry>
        </mxCell>
        <mxCell id="JtXjp0ilDM0jRoYNNazb-56" value="" style="endArrow=none;html=1;rounded=0;exitX=0;exitY=0.5;exitDx=0;exitDy=0;startFill=0;dashed=1;" parent="1" source="JtXjp0ilDM0jRoYNNazb-26" edge="1">
          <mxGeometry width="50" height="50" relative="1" as="geometry">
            <mxPoint x="-281" y="500" as="sourcePoint" />
            <mxPoint x="-581" y="580" as="targetPoint" />
            <Array as="points">
              <mxPoint x="-770" y="360" />
              <mxPoint x="-770" y="580" />
            </Array>
          </mxGeometry>
        </mxCell>
        <mxCell id="JtXjp0ilDM0jRoYNNazb-57" value="" style="endArrow=none;dashed=1;html=1;rounded=0;exitX=0.994;exitY=0.518;exitDx=0;exitDy=0;exitPerimeter=0;" parent="1" source="JtXjp0ilDM0jRoYNNazb-30" edge="1">
          <mxGeometry width="50" height="50" relative="1" as="geometry">
            <mxPoint x="-420" y="420" as="sourcePoint" />
            <mxPoint x="-380" y="420" as="targetPoint" />
          </mxGeometry>
        </mxCell>
        <mxCell id="feLaNdQ0zdZYefx13ktW-1" value="Yes" style="text;strokeColor=none;fillColor=none;align=left;verticalAlign=middle;spacingLeft=4;spacingRight=4;overflow=hidden;points=[[0,0.5],[1,0.5]];portConstraint=eastwest;rotatable=0;whiteSpace=wrap;html=1;" parent="1" vertex="1">
          <mxGeometry x="-751" y="199.5" width="34" height="17" as="geometry" />
        </mxCell>
        <mxCell id="feLaNdQ0zdZYefx13ktW-2" value="&lt;div&gt;Save&lt;/div&gt;&lt;div&gt;&lt;span style=&quot;background-color: transparent; color: light-dark(rgb(0, 0, 0), rgb(255, 255, 255));&quot;&gt;movie&lt;/span&gt;&lt;/div&gt;" style="rounded=0;whiteSpace=wrap;html=1;" parent="1" vertex="1">
          <mxGeometry x="-800" y="199" width="50" height="47" as="geometry" />
        </mxCell>
        <mxCell id="feLaNdQ0zdZYefx13ktW-3" value="" style="endArrow=classic;html=1;rounded=0;exitX=0.5;exitY=0;exitDx=0;exitDy=0;entryX=0;entryY=0.5;entryDx=0;entryDy=0;" parent="1" source="feLaNdQ0zdZYefx13ktW-2" edge="1">
          <mxGeometry width="50" height="50" relative="1" as="geometry">
            <mxPoint x="-490" y="310" as="sourcePoint" />
            <mxPoint x="-738" y="136" as="targetPoint" />
            <Array as="points">
              <mxPoint x="-775" y="136" />
            </Array>
          </mxGeometry>
        </mxCell>
        <mxCell id="feLaNdQ0zdZYefx13ktW-4" value="" style="endArrow=classic;html=1;rounded=0;exitX=0;exitY=0.5;exitDx=0;exitDy=0;entryX=1;entryY=0.468;entryDx=0;entryDy=0;entryPerimeter=0;" parent="1" target="feLaNdQ0zdZYefx13ktW-2" edge="1">
          <mxGeometry width="50" height="50" relative="1" as="geometry">
            <mxPoint x="-727" y="221" as="sourcePoint" />
            <mxPoint x="-670" y="200" as="targetPoint" />
          </mxGeometry>
        </mxCell>
      </root>
    </mxGraphModel>
  </diagram>
  <diagram id="SoXN5Av037y8HXKjvhek" name="5_av_inc/bud_Neg_Pos">
    <mxGraphModel dx="2190" dy="936" grid="1" gridSize="10" guides="1" tooltips="1" connect="1" arrows="1" fold="1" page="1" pageScale="1" pageWidth="827" pageHeight="1169" math="0" shadow="0">
      <root>
        <mxCell id="0" />
        <mxCell id="1" parent="0" />
        <mxCell id="teirfNrVIxX50hZYwzsZ-1" value="Inc/Bud Average&amp;nbsp;Negative Worker" style="swimlane;whiteSpace=wrap;html=1;" parent="1" vertex="1">
          <mxGeometry x="-820" y="5" width="270" height="580" as="geometry" />
        </mxCell>
        <mxCell id="teirfNrVIxX50hZYwzsZ-2" value="" style="ellipse;html=1;shape=startState;fillColor=#000000;strokeColor=#ff0000;" parent="teirfNrVIxX50hZYwzsZ-1" vertex="1">
          <mxGeometry x="79" y="52" width="30" height="30" as="geometry" />
        </mxCell>
        <mxCell id="teirfNrVIxX50hZYwzsZ-4" value="" style="endArrow=classic;html=1;rounded=0;exitX=0.487;exitY=0.94;exitDx=0;exitDy=0;exitPerimeter=0;entryX=0.5;entryY=0.125;entryDx=0;entryDy=0;entryPerimeter=0;" parent="teirfNrVIxX50hZYwzsZ-1" edge="1">
          <mxGeometry width="50" height="50" relative="1" as="geometry">
            <mxPoint x="93.6099999999999" y="75.20000000000005" as="sourcePoint" />
            <mxPoint x="94" y="90.00000000000011" as="targetPoint" />
          </mxGeometry>
        </mxCell>
        <mxCell id="teirfNrVIxX50hZYwzsZ-5" value="Dequeue Eng &amp;amp;&amp;nbsp;&lt;div&gt;USA &amp;gt;=2000&lt;/div&gt;&lt;div&gt;Negative reviews&lt;br&gt;&lt;div&gt;movies&amp;nbsp;&lt;/div&gt;&lt;/div&gt;" style="html=1;whiteSpace=wrap;" parent="teirfNrVIxX50hZYwzsZ-1" vertex="1">
          <mxGeometry x="40" y="90" width="110" height="61" as="geometry" />
        </mxCell>
        <mxCell id="teirfNrVIxX50hZYwzsZ-10" value="More&lt;div&gt;movies?&lt;/div&gt;" style="rhombus;whiteSpace=wrap;html=1;" parent="teirfNrVIxX50hZYwzsZ-1" vertex="1">
          <mxGeometry x="55" y="188" width="80" height="80" as="geometry" />
        </mxCell>
        <mxCell id="teirfNrVIxX50hZYwzsZ-11" value="" style="endArrow=classic;html=1;rounded=0;exitX=0.5;exitY=1;exitDx=0;exitDy=0;entryX=0.5;entryY=-0.012;entryDx=0;entryDy=0;entryPerimeter=0;" parent="teirfNrVIxX50hZYwzsZ-1" source="teirfNrVIxX50hZYwzsZ-5" target="teirfNrVIxX50hZYwzsZ-10" edge="1">
          <mxGeometry width="50" height="50" relative="1" as="geometry">
            <mxPoint x="94.71000000000004" y="145.42699999999996" as="sourcePoint" />
            <mxPoint x="96" y="163.3" as="targetPoint" />
          </mxGeometry>
        </mxCell>
        <mxCell id="teirfNrVIxX50hZYwzsZ-17" value="Equeue a new negative review&lt;div&gt;inc/bud av&lt;/div&gt;" style="html=1;whiteSpace=wrap;" parent="teirfNrVIxX50hZYwzsZ-1" vertex="1">
          <mxGeometry x="42" y="391" width="110" height="50" as="geometry" />
        </mxCell>
        <mxCell id="teirfNrVIxX50hZYwzsZ-18" value="" style="endArrow=classic;html=1;rounded=0;entryX=0.5;entryY=0;entryDx=0;entryDy=0;exitX=0.5;exitY=1;exitDx=0;exitDy=0;" parent="teirfNrVIxX50hZYwzsZ-1" source="teirfNrVIxX50hZYwzsZ-10" target="Cnm8XEMfy7xZK-GY_w_q-1" edge="1">
          <mxGeometry width="50" height="50" relative="1" as="geometry">
            <mxPoint x="96" y="270" as="sourcePoint" />
            <mxPoint x="95.03999999999996" y="318.44999999999993" as="targetPoint" />
          </mxGeometry>
        </mxCell>
        <mxCell id="teirfNrVIxX50hZYwzsZ-23" value="" style="endArrow=classic;html=1;rounded=0;exitX=0.479;exitY=0.98;exitDx=0;exitDy=0;exitPerimeter=0;" parent="teirfNrVIxX50hZYwzsZ-1" source="teirfNrVIxX50hZYwzsZ-17" edge="1">
          <mxGeometry width="50" height="50" relative="1" as="geometry">
            <mxPoint x="90.24000000000001" y="452" as="sourcePoint" />
            <mxPoint x="95" y="470" as="targetPoint" />
          </mxGeometry>
        </mxCell>
        <mxCell id="teirfNrVIxX50hZYwzsZ-26" value="Equeue fineshed&lt;br&gt;&lt;div&gt;signal&lt;/div&gt;" style="html=1;whiteSpace=wrap;" parent="teirfNrVIxX50hZYwzsZ-1" vertex="1">
          <mxGeometry x="42" y="473" width="110" height="50" as="geometry" />
        </mxCell>
        <mxCell id="teirfNrVIxX50hZYwzsZ-33" value="No" style="text;strokeColor=none;fillColor=none;align=left;verticalAlign=middle;spacingLeft=4;spacingRight=4;overflow=hidden;points=[[0,0.5],[1,0.5]];portConstraint=eastwest;rotatable=0;whiteSpace=wrap;html=1;" parent="teirfNrVIxX50hZYwzsZ-1" vertex="1">
          <mxGeometry x="97" y="280" width="34" height="17" as="geometry" />
        </mxCell>
        <mxCell id="teirfNrVIxX50hZYwzsZ-53" value="Save&amp;nbsp;&lt;div&gt;&lt;span style=&quot;background-color: transparent; color: light-dark(rgb(0, 0, 0), rgb(255, 255, 255));&quot;&gt;inc/bud&amp;nbsp;&lt;/span&gt;&lt;div&gt;&lt;div&gt;&lt;span style=&quot;background-color: transparent; color: light-dark(rgb(0, 0, 0), rgb(255, 255, 255));&quot;&gt;movie&lt;/span&gt;&lt;/div&gt;&lt;/div&gt;&lt;/div&gt;" style="rounded=0;whiteSpace=wrap;html=1;" parent="teirfNrVIxX50hZYwzsZ-1" vertex="1">
          <mxGeometry x="172" y="189" width="77" height="80" as="geometry" />
        </mxCell>
        <mxCell id="teirfNrVIxX50hZYwzsZ-54" value="" style="endArrow=classic;html=1;rounded=0;exitX=0.5;exitY=0;exitDx=0;exitDy=0;entryX=1;entryY=0.5;entryDx=0;entryDy=0;" parent="teirfNrVIxX50hZYwzsZ-1" source="teirfNrVIxX50hZYwzsZ-53" target="teirfNrVIxX50hZYwzsZ-5" edge="1">
          <mxGeometry width="50" height="50" relative="1" as="geometry">
            <mxPoint x="35" y="240" as="sourcePoint" />
            <mxPoint x="151" y="121" as="targetPoint" />
            <Array as="points">
              <mxPoint x="210" y="120" />
            </Array>
          </mxGeometry>
        </mxCell>
        <mxCell id="teirfNrVIxX50hZYwzsZ-55" value="" style="endArrow=classic;html=1;rounded=0;exitX=1;exitY=0.5;exitDx=0;exitDy=0;entryX=0;entryY=0.5;entryDx=0;entryDy=0;" parent="teirfNrVIxX50hZYwzsZ-1" target="teirfNrVIxX50hZYwzsZ-53" edge="1">
          <mxGeometry width="50" height="50" relative="1" as="geometry">
            <mxPoint x="135" y="229" as="sourcePoint" />
            <mxPoint x="-50" y="290" as="targetPoint" />
          </mxGeometry>
        </mxCell>
        <mxCell id="teirfNrVIxX50hZYwzsZ-56" value="Yes" style="text;strokeColor=none;fillColor=none;align=left;verticalAlign=middle;spacingLeft=4;spacingRight=4;overflow=hidden;points=[[0,0.5],[1,0.5]];portConstraint=eastwest;rotatable=0;whiteSpace=wrap;html=1;" parent="teirfNrVIxX50hZYwzsZ-1" vertex="1">
          <mxGeometry x="130" y="210" width="34" height="17" as="geometry" />
        </mxCell>
        <mxCell id="Cnm8XEMfy7xZK-GY_w_q-1" value="Calculate&lt;div&gt;inc/bud av movie&lt;/div&gt;" style="html=1;whiteSpace=wrap;" parent="teirfNrVIxX50hZYwzsZ-1" vertex="1">
          <mxGeometry x="41" y="307" width="110" height="50" as="geometry" />
        </mxCell>
        <mxCell id="Cnm8XEMfy7xZK-GY_w_q-2" value="" style="endArrow=classic;html=1;rounded=0;exitX=0.5;exitY=1;exitDx=0;exitDy=0;entryX=0.484;entryY=-0.028;entryDx=0;entryDy=0;entryPerimeter=0;" parent="teirfNrVIxX50hZYwzsZ-1" target="teirfNrVIxX50hZYwzsZ-17" edge="1">
          <mxGeometry width="50" height="50" relative="1" as="geometry">
            <mxPoint x="95" y="357" as="sourcePoint" />
            <mxPoint x="95" y="378" as="targetPoint" />
          </mxGeometry>
        </mxCell>
        <mxCell id="teirfNrVIxX50hZYwzsZ-34" value="Metrics&amp;nbsp; Aggregator Worker" style="swimlane;whiteSpace=wrap;html=1;startSize=23;" parent="1" vertex="1">
          <mxGeometry x="-280" y="5" width="490" height="580" as="geometry" />
        </mxCell>
        <mxCell id="teirfNrVIxX50hZYwzsZ-35" value="Dequeue Neg inc/bud Av&amp;nbsp;&lt;div&gt;Eng&amp;amp;Am&amp;nbsp;&lt;span style=&quot;background-color: transparent; color: light-dark(rgb(0, 0, 0), rgb(255, 255, 255));&quot;&gt;&amp;gt;=2000&lt;/span&gt;&lt;/div&gt;" style="html=1;whiteSpace=wrap;" parent="teirfNrVIxX50hZYwzsZ-34" vertex="1">
          <mxGeometry x="51" y="92" width="110" height="50" as="geometry" />
        </mxCell>
        <mxCell id="teirfNrVIxX50hZYwzsZ-36" value="&lt;font style=&quot;font-size: 10px;&quot;&gt;More&amp;nbsp;&lt;/font&gt;&lt;div&gt;&lt;font style=&quot;font-size: 10px;&quot;&gt;inc/bud av&lt;/font&gt;&lt;/div&gt;&lt;div&gt;&lt;span style=&quot;font-size: 10px; background-color: transparent; color: light-dark(rgb(0, 0, 0), rgb(255, 255, 255));&quot;&gt;Neg?&lt;/span&gt;&lt;/div&gt;" style="rhombus;whiteSpace=wrap;html=1;" parent="teirfNrVIxX50hZYwzsZ-34" vertex="1">
          <mxGeometry x="61" y="163" width="90" height="89" as="geometry" />
        </mxCell>
        <mxCell id="teirfNrVIxX50hZYwzsZ-37" value="" style="endArrow=classic;html=1;rounded=0;exitX=0.5;exitY=1;exitDx=0;exitDy=0;entryX=0.5;entryY=0;entryDx=0;entryDy=0;" parent="teirfNrVIxX50hZYwzsZ-34" source="teirfNrVIxX50hZYwzsZ-35" target="teirfNrVIxX50hZYwzsZ-36" edge="1">
          <mxGeometry width="50" height="50" relative="1" as="geometry">
            <mxPoint x="126.69000000000011" y="141" as="sourcePoint" />
            <mxPoint x="127.32" y="160" as="targetPoint" />
          </mxGeometry>
        </mxCell>
        <mxCell id="teirfNrVIxX50hZYwzsZ-38" value="Recalculate&amp;nbsp;&lt;div&gt;inc/bud a&lt;span style=&quot;background-color: transparent; color: light-dark(rgb(0, 0, 0), rgb(255, 255, 255));&quot;&gt;v Neg Rev&lt;/span&gt;&lt;/div&gt;&lt;div&gt;and save&lt;/div&gt;" style="rounded=0;whiteSpace=wrap;html=1;" parent="teirfNrVIxX50hZYwzsZ-34" vertex="1">
          <mxGeometry x="188" y="167" width="77" height="80" as="geometry" />
        </mxCell>
        <mxCell id="teirfNrVIxX50hZYwzsZ-39" value="" style="endArrow=classic;html=1;rounded=0;exitX=0.5;exitY=0;exitDx=0;exitDy=0;entryX=1.01;entryY=0.551;entryDx=0;entryDy=0;entryPerimeter=0;" parent="teirfNrVIxX50hZYwzsZ-34" source="teirfNrVIxX50hZYwzsZ-38" target="teirfNrVIxX50hZYwzsZ-35" edge="1">
          <mxGeometry width="50" height="50" relative="1" as="geometry">
            <mxPoint x="70" y="239" as="sourcePoint" />
            <mxPoint x="120" y="189" as="targetPoint" />
            <Array as="points">
              <mxPoint x="227" y="119" />
            </Array>
          </mxGeometry>
        </mxCell>
        <mxCell id="teirfNrVIxX50hZYwzsZ-41" value="" style="endArrow=classic;html=1;rounded=0;exitX=1;exitY=0.5;exitDx=0;exitDy=0;entryX=0;entryY=0.5;entryDx=0;entryDy=0;" parent="teirfNrVIxX50hZYwzsZ-34" source="teirfNrVIxX50hZYwzsZ-36" target="teirfNrVIxX50hZYwzsZ-38" edge="1">
          <mxGeometry width="50" height="50" relative="1" as="geometry">
            <mxPoint x="-84" y="319" as="sourcePoint" />
            <mxPoint x="-34" y="269" as="targetPoint" />
          </mxGeometry>
        </mxCell>
        <mxCell id="teirfNrVIxX50hZYwzsZ-42" value="" style="endArrow=classic;html=1;rounded=0;exitX=0.5;exitY=1;exitDx=0;exitDy=0;entryX=0.5;entryY=0;entryDx=0;entryDy=0;" parent="teirfNrVIxX50hZYwzsZ-34" source="teirfNrVIxX50hZYwzsZ-36" edge="1">
          <mxGeometry width="50" height="50" relative="1" as="geometry">
            <mxPoint x="-84" y="319" as="sourcePoint" />
            <mxPoint x="106.00000000000023" y="295.9999999999999" as="targetPoint" />
          </mxGeometry>
        </mxCell>
        <mxCell id="teirfNrVIxX50hZYwzsZ-43" value="Equeue to&lt;div&gt;Reports Queue&lt;/div&gt;" style="html=1;whiteSpace=wrap;" parent="teirfNrVIxX50hZYwzsZ-34" vertex="1">
          <mxGeometry x="165.5" y="330" width="110" height="50" as="geometry" />
        </mxCell>
        <mxCell id="teirfNrVIxX50hZYwzsZ-45" value="" style="ellipse;html=1;shape=endState;fillColor=#000000;strokeColor=#ff0000;" parent="teirfNrVIxX50hZYwzsZ-34" vertex="1">
          <mxGeometry x="205.5" y="420" width="30" height="30" as="geometry" />
        </mxCell>
        <mxCell id="teirfNrVIxX50hZYwzsZ-46" value="" style="endArrow=classic;html=1;rounded=0;exitX=0.5;exitY=1;exitDx=0;exitDy=0;entryX=0.5;entryY=0;entryDx=0;entryDy=0;" parent="teirfNrVIxX50hZYwzsZ-34" source="teirfNrVIxX50hZYwzsZ-43" target="teirfNrVIxX50hZYwzsZ-45" edge="1">
          <mxGeometry width="50" height="50" relative="1" as="geometry">
            <mxPoint x="210.5" y="270" as="sourcePoint" />
            <mxPoint x="260.5" y="220" as="targetPoint" />
          </mxGeometry>
        </mxCell>
        <mxCell id="teirfNrVIxX50hZYwzsZ-47" value="Yes" style="text;strokeColor=none;fillColor=none;align=left;verticalAlign=middle;spacingLeft=4;spacingRight=4;overflow=hidden;points=[[0,0.5],[1,0.5]];portConstraint=eastwest;rotatable=0;whiteSpace=wrap;html=1;" parent="teirfNrVIxX50hZYwzsZ-34" vertex="1">
          <mxGeometry x="146" y="189" width="34" height="17" as="geometry" />
        </mxCell>
        <mxCell id="teirfNrVIxX50hZYwzsZ-48" value="Yes" style="text;strokeColor=none;fillColor=none;align=left;verticalAlign=middle;spacingLeft=4;spacingRight=4;overflow=hidden;points=[[0,0.5],[1,0.5]];portConstraint=eastwest;rotatable=0;whiteSpace=wrap;html=1;" parent="teirfNrVIxX50hZYwzsZ-34" vertex="1">
          <mxGeometry x="226" y="150" width="34" height="17" as="geometry" />
        </mxCell>
        <mxCell id="teirfNrVIxX50hZYwzsZ-49" value="No" style="text;strokeColor=none;fillColor=none;align=left;verticalAlign=middle;spacingLeft=4;spacingRight=4;overflow=hidden;points=[[0,0.5],[1,0.5]];portConstraint=eastwest;rotatable=0;whiteSpace=wrap;html=1;" parent="teirfNrVIxX50hZYwzsZ-34" vertex="1">
          <mxGeometry x="106" y="252" width="34" height="17" as="geometry" />
        </mxCell>
        <mxCell id="1stG0PLWfh5WWp8_YOCH-1" value="Dequeue Pos inc/bud Av&amp;nbsp;&lt;div&gt;Eng&amp;amp;Am&amp;nbsp;&lt;span style=&quot;background-color: transparent; color: light-dark(rgb(0, 0, 0), rgb(255, 255, 255));&quot;&gt;&amp;gt;=2000&lt;/span&gt;&lt;/div&gt;" style="html=1;whiteSpace=wrap;" parent="teirfNrVIxX50hZYwzsZ-34" vertex="1">
          <mxGeometry x="265" y="92" width="110" height="50" as="geometry" />
        </mxCell>
        <mxCell id="1stG0PLWfh5WWp8_YOCH-2" value="&lt;font style=&quot;font-size: 10px;&quot;&gt;More&amp;nbsp;&lt;/font&gt;&lt;div&gt;&lt;font style=&quot;font-size: 10px;&quot;&gt;inc/bud av&lt;/font&gt;&lt;/div&gt;&lt;div&gt;&lt;span style=&quot;font-size: 10px; background-color: transparent; color: light-dark(rgb(0, 0, 0), rgb(255, 255, 255));&quot;&gt;Pos?&lt;/span&gt;&lt;/div&gt;" style="rhombus;whiteSpace=wrap;html=1;" parent="teirfNrVIxX50hZYwzsZ-34" vertex="1">
          <mxGeometry x="275" y="163" width="90" height="89" as="geometry" />
        </mxCell>
        <mxCell id="1stG0PLWfh5WWp8_YOCH-3" value="" style="endArrow=classic;html=1;rounded=0;exitX=0.5;exitY=1;exitDx=0;exitDy=0;entryX=0.5;entryY=0;entryDx=0;entryDy=0;" parent="teirfNrVIxX50hZYwzsZ-34" source="1stG0PLWfh5WWp8_YOCH-1" target="1stG0PLWfh5WWp8_YOCH-2" edge="1">
          <mxGeometry width="50" height="50" relative="1" as="geometry">
            <mxPoint x="338.6900000000001" y="141" as="sourcePoint" />
            <mxPoint x="339.32" y="160" as="targetPoint" />
          </mxGeometry>
        </mxCell>
        <mxCell id="1stG0PLWfh5WWp8_YOCH-4" value="Recalculate&amp;nbsp;&lt;div&gt;inc/bud av&lt;/div&gt;&lt;div&gt;Pos Rev&lt;/div&gt;&lt;div&gt;and save&lt;/div&gt;" style="rounded=0;whiteSpace=wrap;html=1;" parent="teirfNrVIxX50hZYwzsZ-34" vertex="1">
          <mxGeometry x="402" y="167" width="77" height="80" as="geometry" />
        </mxCell>
        <mxCell id="1stG0PLWfh5WWp8_YOCH-5" value="" style="endArrow=classic;html=1;rounded=0;exitX=0.5;exitY=0;exitDx=0;exitDy=0;entryX=1.01;entryY=0.551;entryDx=0;entryDy=0;entryPerimeter=0;" parent="teirfNrVIxX50hZYwzsZ-34" source="1stG0PLWfh5WWp8_YOCH-4" target="1stG0PLWfh5WWp8_YOCH-1" edge="1">
          <mxGeometry width="50" height="50" relative="1" as="geometry">
            <mxPoint x="282" y="239" as="sourcePoint" />
            <mxPoint x="332" y="189" as="targetPoint" />
            <Array as="points">
              <mxPoint x="440" y="119" />
            </Array>
          </mxGeometry>
        </mxCell>
        <mxCell id="1stG0PLWfh5WWp8_YOCH-6" value="" style="endArrow=classic;html=1;rounded=0;exitX=1;exitY=0.5;exitDx=0;exitDy=0;entryX=0;entryY=0.5;entryDx=0;entryDy=0;" parent="teirfNrVIxX50hZYwzsZ-34" source="1stG0PLWfh5WWp8_YOCH-2" target="1stG0PLWfh5WWp8_YOCH-4" edge="1">
          <mxGeometry width="50" height="50" relative="1" as="geometry">
            <mxPoint x="130" y="319" as="sourcePoint" />
            <mxPoint x="180" y="269" as="targetPoint" />
          </mxGeometry>
        </mxCell>
        <mxCell id="1stG0PLWfh5WWp8_YOCH-7" value="" style="endArrow=classic;html=1;rounded=0;exitX=0.5;exitY=1;exitDx=0;exitDy=0;entryX=0.5;entryY=0;entryDx=0;entryDy=0;" parent="teirfNrVIxX50hZYwzsZ-34" source="1stG0PLWfh5WWp8_YOCH-2" edge="1">
          <mxGeometry width="50" height="50" relative="1" as="geometry">
            <mxPoint x="130" y="319" as="sourcePoint" />
            <mxPoint x="320.0000000000002" y="295.9999999999999" as="targetPoint" />
          </mxGeometry>
        </mxCell>
        <mxCell id="1stG0PLWfh5WWp8_YOCH-8" value="Yes" style="text;strokeColor=none;fillColor=none;align=left;verticalAlign=middle;spacingLeft=4;spacingRight=4;overflow=hidden;points=[[0,0.5],[1,0.5]];portConstraint=eastwest;rotatable=0;whiteSpace=wrap;html=1;" parent="teirfNrVIxX50hZYwzsZ-34" vertex="1">
          <mxGeometry x="360" y="189" width="34" height="17" as="geometry" />
        </mxCell>
        <mxCell id="1stG0PLWfh5WWp8_YOCH-9" value="Yes" style="text;strokeColor=none;fillColor=none;align=left;verticalAlign=middle;spacingLeft=4;spacingRight=4;overflow=hidden;points=[[0,0.5],[1,0.5]];portConstraint=eastwest;rotatable=0;whiteSpace=wrap;html=1;" parent="teirfNrVIxX50hZYwzsZ-34" vertex="1">
          <mxGeometry x="440" y="150" width="34" height="17" as="geometry" />
        </mxCell>
        <mxCell id="1stG0PLWfh5WWp8_YOCH-10" value="No" style="text;strokeColor=none;fillColor=none;align=left;verticalAlign=middle;spacingLeft=4;spacingRight=4;overflow=hidden;points=[[0,0.5],[1,0.5]];portConstraint=eastwest;rotatable=0;whiteSpace=wrap;html=1;" parent="teirfNrVIxX50hZYwzsZ-34" vertex="1">
          <mxGeometry x="320" y="252" width="34" height="17" as="geometry" />
        </mxCell>
        <mxCell id="teirfNrVIxX50hZYwzsZ-50" value="" style="endArrow=classic;html=1;rounded=0;exitX=0.5;exitY=1;exitDx=0;exitDy=0;dashed=1;entryX=0.5;entryY=0;entryDx=0;entryDy=0;" parent="1" source="teirfNrVIxX50hZYwzsZ-26" target="teirfNrVIxX50hZYwzsZ-35" edge="1">
          <mxGeometry width="50" height="50" relative="1" as="geometry">
            <mxPoint x="-380" y="545" as="sourcePoint" />
            <mxPoint x="-160" y="95" as="targetPoint" />
            <Array as="points">
              <mxPoint x="-723" y="575" />
              <mxPoint x="-460" y="575" />
              <mxPoint x="-240" y="575" />
              <mxPoint x="-240" y="305" />
              <mxPoint x="-240" y="65" />
              <mxPoint x="-174" y="65" />
            </Array>
          </mxGeometry>
        </mxCell>
        <mxCell id="teirfNrVIxX50hZYwzsZ-51" value="" style="endArrow=none;html=1;rounded=0;exitX=0;exitY=0.5;exitDx=0;exitDy=0;startFill=0;dashed=1;" parent="1" source="teirfNrVIxX50hZYwzsZ-17" edge="1">
          <mxGeometry width="50" height="50" relative="1" as="geometry">
            <mxPoint x="-370" y="483" as="sourcePoint" />
            <mxPoint x="-723" y="575" as="targetPoint" />
            <Array as="points">
              <mxPoint x="-790" y="421" />
              <mxPoint x="-790" y="575" />
            </Array>
          </mxGeometry>
        </mxCell>
        <mxCell id="Cnm8XEMfy7xZK-GY_w_q-7" value="Inc/Bud Average&amp;nbsp;Positive Worker" style="swimlane;whiteSpace=wrap;html=1;" parent="1" vertex="1">
          <mxGeometry x="-550" y="5" width="270" height="580" as="geometry" />
        </mxCell>
        <mxCell id="Cnm8XEMfy7xZK-GY_w_q-8" value="" style="ellipse;html=1;shape=startState;fillColor=#000000;strokeColor=#ff0000;" parent="Cnm8XEMfy7xZK-GY_w_q-7" vertex="1">
          <mxGeometry x="80" y="46" width="30" height="30" as="geometry" />
        </mxCell>
        <mxCell id="Cnm8XEMfy7xZK-GY_w_q-9" value="" style="endArrow=classic;html=1;rounded=0;exitX=0.487;exitY=0.94;exitDx=0;exitDy=0;exitPerimeter=0;entryX=0.5;entryY=0.125;entryDx=0;entryDy=0;entryPerimeter=0;" parent="Cnm8XEMfy7xZK-GY_w_q-7" edge="1">
          <mxGeometry width="50" height="50" relative="1" as="geometry">
            <mxPoint x="94.6099999999999" y="69.20000000000005" as="sourcePoint" />
            <mxPoint x="95" y="84.00000000000011" as="targetPoint" />
          </mxGeometry>
        </mxCell>
        <mxCell id="Cnm8XEMfy7xZK-GY_w_q-10" value="Dequeue Eng &amp;amp;&amp;nbsp;&lt;div&gt;USA &amp;gt;=2000&lt;/div&gt;&lt;div&gt;Positive reviews&lt;br&gt;&lt;div&gt;movies&amp;nbsp;&lt;/div&gt;&lt;/div&gt;" style="html=1;whiteSpace=wrap;" parent="Cnm8XEMfy7xZK-GY_w_q-7" vertex="1">
          <mxGeometry x="42" y="84" width="110" height="61" as="geometry" />
        </mxCell>
        <mxCell id="Cnm8XEMfy7xZK-GY_w_q-11" value="More&lt;div&gt;movies?&lt;/div&gt;" style="rhombus;whiteSpace=wrap;html=1;" parent="Cnm8XEMfy7xZK-GY_w_q-7" vertex="1">
          <mxGeometry x="55" y="188" width="80" height="80" as="geometry" />
        </mxCell>
        <mxCell id="Cnm8XEMfy7xZK-GY_w_q-12" value="" style="endArrow=classic;html=1;rounded=0;exitX=0.461;exitY=1.007;exitDx=0;exitDy=0;exitPerimeter=0;entryX=0.5;entryY=-0.012;entryDx=0;entryDy=0;entryPerimeter=0;" parent="Cnm8XEMfy7xZK-GY_w_q-7" target="Cnm8XEMfy7xZK-GY_w_q-11" edge="1">
          <mxGeometry width="50" height="50" relative="1" as="geometry">
            <mxPoint x="94.71000000000004" y="145.42699999999996" as="sourcePoint" />
            <mxPoint x="96" y="163.3" as="targetPoint" />
          </mxGeometry>
        </mxCell>
        <mxCell id="Cnm8XEMfy7xZK-GY_w_q-13" value="Equeue a new positive review inc/bud av" style="html=1;whiteSpace=wrap;" parent="Cnm8XEMfy7xZK-GY_w_q-7" vertex="1">
          <mxGeometry x="42" y="391" width="110" height="50" as="geometry" />
        </mxCell>
        <mxCell id="Cnm8XEMfy7xZK-GY_w_q-14" value="" style="endArrow=classic;html=1;rounded=0;entryX=0.5;entryY=0;entryDx=0;entryDy=0;exitX=0.5;exitY=1;exitDx=0;exitDy=0;" parent="Cnm8XEMfy7xZK-GY_w_q-7" source="Cnm8XEMfy7xZK-GY_w_q-11" target="Cnm8XEMfy7xZK-GY_w_q-22" edge="1">
          <mxGeometry width="50" height="50" relative="1" as="geometry">
            <mxPoint x="96" y="270" as="sourcePoint" />
            <mxPoint x="95.03999999999996" y="318.44999999999993" as="targetPoint" />
          </mxGeometry>
        </mxCell>
        <mxCell id="Cnm8XEMfy7xZK-GY_w_q-15" value="" style="endArrow=classic;html=1;rounded=0;exitX=0.479;exitY=0.98;exitDx=0;exitDy=0;exitPerimeter=0;" parent="Cnm8XEMfy7xZK-GY_w_q-7" source="Cnm8XEMfy7xZK-GY_w_q-13" edge="1">
          <mxGeometry width="50" height="50" relative="1" as="geometry">
            <mxPoint x="90.24000000000001" y="452" as="sourcePoint" />
            <mxPoint x="95" y="470" as="targetPoint" />
          </mxGeometry>
        </mxCell>
        <mxCell id="Cnm8XEMfy7xZK-GY_w_q-16" value="Equeue fineshed&lt;br&gt;&lt;div&gt;signal&lt;/div&gt;" style="html=1;whiteSpace=wrap;" parent="Cnm8XEMfy7xZK-GY_w_q-7" vertex="1">
          <mxGeometry x="42" y="473" width="110" height="50" as="geometry" />
        </mxCell>
        <mxCell id="Cnm8XEMfy7xZK-GY_w_q-17" value="No" style="text;strokeColor=none;fillColor=none;align=left;verticalAlign=middle;spacingLeft=4;spacingRight=4;overflow=hidden;points=[[0,0.5],[1,0.5]];portConstraint=eastwest;rotatable=0;whiteSpace=wrap;html=1;" parent="Cnm8XEMfy7xZK-GY_w_q-7" vertex="1">
          <mxGeometry x="97" y="280" width="34" height="17" as="geometry" />
        </mxCell>
        <mxCell id="Cnm8XEMfy7xZK-GY_w_q-18" value="Save&amp;nbsp;&lt;div&gt;&lt;span style=&quot;background-color: transparent; color: light-dark(rgb(0, 0, 0), rgb(255, 255, 255));&quot;&gt;inc/bud&amp;nbsp;&lt;/span&gt;&lt;div&gt;&lt;div&gt;&lt;span style=&quot;background-color: transparent; color: light-dark(rgb(0, 0, 0), rgb(255, 255, 255));&quot;&gt;movie&lt;/span&gt;&lt;/div&gt;&lt;/div&gt;&lt;/div&gt;" style="rounded=0;whiteSpace=wrap;html=1;" parent="Cnm8XEMfy7xZK-GY_w_q-7" vertex="1">
          <mxGeometry x="172" y="189" width="77" height="80" as="geometry" />
        </mxCell>
        <mxCell id="Cnm8XEMfy7xZK-GY_w_q-19" value="" style="endArrow=classic;html=1;rounded=0;exitX=0.5;exitY=0;exitDx=0;exitDy=0;entryX=1.01;entryY=0.551;entryDx=0;entryDy=0;entryPerimeter=0;" parent="Cnm8XEMfy7xZK-GY_w_q-7" source="Cnm8XEMfy7xZK-GY_w_q-18" edge="1">
          <mxGeometry width="50" height="50" relative="1" as="geometry">
            <mxPoint x="35" y="240" as="sourcePoint" />
            <mxPoint x="151" y="121" as="targetPoint" />
            <Array as="points">
              <mxPoint x="210" y="120" />
            </Array>
          </mxGeometry>
        </mxCell>
        <mxCell id="Cnm8XEMfy7xZK-GY_w_q-20" value="" style="endArrow=classic;html=1;rounded=0;exitX=1;exitY=0.5;exitDx=0;exitDy=0;entryX=0;entryY=0.5;entryDx=0;entryDy=0;" parent="Cnm8XEMfy7xZK-GY_w_q-7" target="Cnm8XEMfy7xZK-GY_w_q-18" edge="1">
          <mxGeometry width="50" height="50" relative="1" as="geometry">
            <mxPoint x="135" y="229" as="sourcePoint" />
            <mxPoint x="-50" y="290" as="targetPoint" />
          </mxGeometry>
        </mxCell>
        <mxCell id="Cnm8XEMfy7xZK-GY_w_q-21" value="Yes" style="text;strokeColor=none;fillColor=none;align=left;verticalAlign=middle;spacingLeft=4;spacingRight=4;overflow=hidden;points=[[0,0.5],[1,0.5]];portConstraint=eastwest;rotatable=0;whiteSpace=wrap;html=1;" parent="Cnm8XEMfy7xZK-GY_w_q-7" vertex="1">
          <mxGeometry x="130" y="210" width="34" height="17" as="geometry" />
        </mxCell>
        <mxCell id="Cnm8XEMfy7xZK-GY_w_q-22" value="Calculate&lt;div&gt;inc/bud av movie&lt;/div&gt;" style="html=1;whiteSpace=wrap;" parent="Cnm8XEMfy7xZK-GY_w_q-7" vertex="1">
          <mxGeometry x="41" y="307" width="110" height="50" as="geometry" />
        </mxCell>
        <mxCell id="Cnm8XEMfy7xZK-GY_w_q-23" value="" style="endArrow=classic;html=1;rounded=0;exitX=0.5;exitY=1;exitDx=0;exitDy=0;entryX=0.484;entryY=-0.028;entryDx=0;entryDy=0;entryPerimeter=0;" parent="Cnm8XEMfy7xZK-GY_w_q-7" target="Cnm8XEMfy7xZK-GY_w_q-13" edge="1">
          <mxGeometry width="50" height="50" relative="1" as="geometry">
            <mxPoint x="95" y="357" as="sourcePoint" />
            <mxPoint x="95" y="378" as="targetPoint" />
          </mxGeometry>
        </mxCell>
        <mxCell id="Cnm8XEMfy7xZK-GY_w_q-24" value="" style="endArrow=none;html=1;rounded=0;exitX=0;exitY=0.5;exitDx=0;exitDy=0;startFill=0;dashed=1;" parent="1" source="Cnm8XEMfy7xZK-GY_w_q-13" edge="1">
          <mxGeometry width="50" height="50" relative="1" as="geometry">
            <mxPoint x="-100" y="483" as="sourcePoint" />
            <mxPoint x="-450" y="555" as="targetPoint" />
            <Array as="points">
              <mxPoint x="-520" y="421" />
              <mxPoint x="-520" y="555" />
            </Array>
          </mxGeometry>
        </mxCell>
        <mxCell id="fvtdMylUlRs6AIFktn_f-2" value="" style="endArrow=classic;html=1;rounded=0;exitX=0.5;exitY=1;exitDx=0;exitDy=0;dashed=1;entryX=0.5;entryY=0;entryDx=0;entryDy=0;" parent="1" source="Cnm8XEMfy7xZK-GY_w_q-16" target="1stG0PLWfh5WWp8_YOCH-1" edge="1">
          <mxGeometry width="50" height="50" relative="1" as="geometry">
            <mxPoint x="-651" y="528" as="sourcePoint" />
            <mxPoint x="-90" y="95" as="targetPoint" />
            <Array as="points">
              <mxPoint x="-453" y="555" />
              <mxPoint x="-260" y="555" />
              <mxPoint x="-260" y="45" />
              <mxPoint x="-170" y="45" />
              <mxPoint x="40" y="45" />
            </Array>
          </mxGeometry>
        </mxCell>
        <mxCell id="1stG0PLWfh5WWp8_YOCH-11" value="" style="endArrow=none;html=1;rounded=0;" parent="1" edge="1">
          <mxGeometry width="50" height="50" relative="1" as="geometry">
            <mxPoint x="-190" y="305" as="sourcePoint" />
            <mxPoint x="60" y="305" as="targetPoint" />
          </mxGeometry>
        </mxCell>
        <mxCell id="1stG0PLWfh5WWp8_YOCH-12" value="" style="endArrow=classic;html=1;rounded=0;entryX=0.5;entryY=0;entryDx=0;entryDy=0;" parent="1" target="teirfNrVIxX50hZYwzsZ-43" edge="1">
          <mxGeometry width="50" height="50" relative="1" as="geometry">
            <mxPoint x="-60" y="305" as="sourcePoint" />
            <mxPoint x="10" y="265" as="targetPoint" />
          </mxGeometry>
        </mxCell>
      </root>
    </mxGraphModel>
  </diagram>
</mxfile>
